WorkSans-Regular.ufo
<glyph name="ampersand" format="2">
  <advance width="623"/>
  <unicode hex="0026"/>
  <outline>
    <contour>
      <point x="351" y="-10"/>
      <point x="426" y="29"/>
      <point x="477" y="89" type="curve"/>
      <point x="537" y="158"/>
      <point x="566" y="253"/>
      <point x="560" y="347" type="curve"/>
      <point x="496" y="355" type="line"/>
      <point x="502" y="262"/>
      <point x="477" y="187"/>
      <point x="432" y="135" type="curve"/>
      <point x="388" y="83"/>
      <point x="325" y="55"/>
      <point x="255" y="55" type="curve" smooth="yes"/>
      <point x="185" y="55"/>
      <point x="123" y="101"/>
      <point x="123" y="167" type="curve" smooth="yes"/>
      <point x="123" y="220"/>
      <point x="149" y="262"/>
      <point x="281" y="332" type="curve" smooth="yes"/>
      <point x="416" y="404"/>
      <point x="439" y="460"/>
      <point x="439" y="534" type="curve" smooth="yes"/>
      <point x="439" y="633"/>
      <point x="363" y="670"/>
      <point x="285" y="670" type="curve" smooth="yes"/>
      <point x="183" y="670"/>
      <point x="130" y="596"/>
      <point x="130" y="524" type="curve" smooth="yes"/>
      <point x="130" y="449"/>
      <point x="176" y="401"/>
      <point x="321" y="222" type="curve" smooth="yes"/>
      <point x="489" y="16"/>
      <point x="530" y="-10"/>
      <point x="607" y="-10" type="curve"/>
      <point x="627" y="50" type="line"/>
      <point x="555" y="50"/>
      <point x="526" y="77"/>
      <point x="375" y="265" type="curve" smooth="yes"/>
      <point x="225" y="452"/>
      <point x="205" y="475"/>
      <point x="205" y="525" type="curve" smooth="yes"/>
      <point x="205" y="566"/>
      <point x="231" y="602"/>
      <point x="284" y="602" type="curve" smooth="yes"/>
      <point x="337" y="602"/>
      <point x="368" y="580"/>
      <point x="368" y="532" type="curve" smooth="yes"/>
      <point x="368" y="484"/>
      <point x="357" y="438"/>
      <point x="241" y="383" type="curve" smooth="yes"/>
      <point x="98" y="315"/>
      <point x="48" y="249"/>
      <point x="48" y="161" type="curve" smooth="yes"/>
      <point x="48" y="63"/>
      <point x="134" y="-10"/>
      <point x="258" y="-10" type="curve" smooth="yes"/>
    </contour>
  </outline>
</glyph>
<glyph name="quotesingle" format="2">
  <advance width="234"/>
  <unicode hex="0027"/>
  <outline>
    <contour>
      <point x="82" y="690" type="line"/>
      <point x="82" y="443" type="line"/>
      <point x="144" y="443" type="line"/>
      <point x="170" y="690" type="line"/>
    </contour>
  </outline>
</glyph>
<glyph name="plus" format="2">
  <advance width="604"/>
  <unicode hex="002B"/>
  <outline>
    <contour>
      <point x="265" y="564" type="line"/>
      <point x="265" y="68" type="line"/>
      <point x="340" y="68" type="line"/>
      <point x="340" y="564" type="line"/>
    </contour>
    <contour>
      <point x="59" y="354" type="line"/>
      <point x="59" y="279" type="line"/>
      <point x="545" y="279" type="line"/>
      <point x="545" y="354" type="line"/>
    </contour>
  </outline>
</glyph>
<glyph name="four" format="2">
  <advance width="611"/>
  <unicode hex="0034"/>
  <outline>
    <contour>
      <point x="446" y="242" type="line"/>
      <point x="446" y="660" type="line"/>
      <point x="345" y="660" type="line"/>
      <point x="44" y="232" type="line"/>
      <point x="44" y="173" type="line"/>
      <point x="366" y="173" type="line"/>
      <point x="366" y="0" type="line"/>
      <point x="446" y="0" type="line"/>
      <point x="446" y="173" type="line"/>
      <point x="563" y="173" type="line"/>
      <point x="563" y="242" type="line"/>
    </contour>
    <contour>
      <point x="323" y="515"/>
      <point x="352" y="562"/>
      <point x="368" y="595" type="curve"/>
      <point x="370" y="595" type="line"/>
      <point x="366" y="489" type="line"/>
      <point x="366" y="242" type="line"/>
      <point x="129" y="242" type="line"/>
      <point x="302" y="485" type="line" smooth="yes"/>
    </contour>
  </outline>
</glyph>
<glyph name="seven" format="2">
  <advance width="561"/>
  <unicode hex="0037"/>
  <outline>
    <contour>
      <point x="40" y="585" type="line"/>
      <point x="471" y="585" type="line"/>
      <point x="458" y="605" type="line"/>
      <point x="291" y="434"/>
      <point x="208" y="222"/>
      <point x="208" y="0" type="curve"/>
      <point x="290" y="0" type="line"/>
      <point x="290" y="223"/>
      <point x="359" y="410"/>
      <point x="526" y="585" type="curve"/>
      <point x="526" y="660" type="line"/>
      <point x="40" y="660" type="line"/>
    </contour>
  </outline>
</glyph>
<glyph name="eight" format="2">
  <advance width="616"/>
  <unicode hex="0038"/>
  <outline>
    <contour>
      <point x="181" y="669"/>
      <point x="98" y="603"/>
      <point x="98" y="496" type="curve" smooth="yes"/>
      <point x="98" y="427"/>
      <point x="134" y="373"/>
      <point x="192" y="348" type="curve"/>
      <point x="192" y="347" type="line"/>
      <point x="115" y="319"/>
      <point x="68" y="259"/>
      <point x="68" y="178" type="curve" smooth="yes"/>
      <point x="68" y="63"/>
      <point x="164" y="-10"/>
      <point x="308" y="-10" type="curve" smooth="yes"/>
      <point x="453" y="-10"/>
      <point x="548" y="63"/>
      <point x="548" y="178" type="curve" smooth="yes"/>
      <point x="548" y="261"/>
      <point x="500" y="319"/>
      <point x="425" y="347" type="curve"/>
      <point x="425" y="348" type="line"/>
      <point x="483" y="374"/>
      <point x="518" y="428"/>
      <point x="518" y="496" type="curve" smooth="yes"/>
      <point x="518" y="603"/>
      <point x="435" y="669"/>
      <point x="308" y="669" type="curve" smooth="yes"/>
    </contour>
    <contour>
      <point x="386" y="594"/>
      <point x="435" y="555"/>
      <point x="435" y="488" type="curve" smooth="yes"/>
      <point x="435" y="423"/>
      <point x="384" y="383"/>
      <point x="308" y="383" type="curve" smooth="yes"/>
      <point x="232" y="383"/>
      <point x="181" y="423"/>
      <point x="181" y="488" type="curve" smooth="yes"/>
      <point x="181" y="555"/>
      <point x="230" y="594"/>
      <point x="308" y="594" type="curve" smooth="yes"/>
    </contour>
    <contour>
      <point x="212" y="65"/>
      <point x="151" y="111"/>
      <point x="151" y="186" type="curve" smooth="yes"/>
      <point x="151" y="262"/>
      <point x="214" y="308"/>
      <point x="308" y="308" type="curve" smooth="yes"/>
      <point x="403" y="308"/>
      <point x="465" y="262"/>
      <point x="465" y="186" type="curve" smooth="yes"/>
      <point x="465" y="111"/>
      <point x="405" y="65"/>
      <point x="308" y="65" type="curve" smooth="yes"/>
    </contour>
  </outline>
</glyph>
<glyph name="H" format="2">
  <advance width="734"/>
  <unicode hex="0048"/>
  <anchor x="367" y="0" name="bottom"/>
  <anchor x="586" y="0" name="bottomC"/>
  <anchor x="626" y="0" name="ogonek"/>
  <anchor x="367" y="660" name="top"/>
  <outline>
    <contour>
      <point x="546" y="660" type="line"/>
      <point x="546" y="0" type="line"/>
      <point x="626" y="0" type="line"/>
      <point x="626" y="660" type="line"/>
    </contour>
    <contour>
      <point x="108" y="660" type="line"/>
      <point x="108" y="0" type="line"/>
      <point x="188" y="0" type="line"/>
      <point x="188" y="660" type="line"/>
    </contour>
    <contour>
      <point x="150" y="372" type="line"/>
      <point x="150" y="297" type="line"/>
      <point x="583" y="297" type="line"/>
      <point x="583" y="372" type="line"/>
    </contour>
  </outline>
</glyph>
<glyph name="J" format="2">
  <advance width="566"/>
  <unicode hex="004A"/>
  <anchor x="256" y="0" name="bottom"/>
  <anchor x="250" y="0" name="bottomC"/>
  <anchor x="310" y="0" name="ogonek"/>
  <anchor x="425" y="660" name="top"/>
  <outline>
    <contour>
      <point x="385" y="660" type="line"/>
      <point x="385" y="246" type="line" smooth="yes"/>
      <point x="385" y="128"/>
      <point x="351" y="65"/>
      <point x="238" y="65" type="curve" smooth="yes"/>
      <point x="138" y="65"/>
      <point x="106" y="120"/>
      <point x="121" y="233" type="curve"/>
      <point x="47" y="218" type="line"/>
      <point x="21" y="79"/>
      <point x="93" y="-10"/>
      <point x="241" y="-10" type="curve" smooth="yes"/>
      <point x="381" y="-10"/>
      <point x="465" y="78"/>
      <point x="465" y="226" type="curve" smooth="yes"/>
      <point x="465" y="660" type="line"/>
    </contour>
  </outline>
</glyph>
<glyph name="K" format="2">
  <advance width="656"/>
  <unicode hex="004B"/>
  <anchor x="373" y="0" name="bottom"/>
  <anchor x="588" y="0" name="bottomC"/>
  <anchor x="628" y="0" name="ogonek"/>
  <anchor x="353" y="660" name="top"/>
  <outline>
    <contour>
      <point x="520" y="660" type="line"/>
      <point x="148" y="279" type="line"/>
      <point x="148" y="171" type="line"/>
      <point x="325" y="352" type="line"/>
      <point x="337" y="365" type="line"/>
      <point x="625" y="660" type="line"/>
    </contour>
    <contour>
      <point x="108" y="660" type="line"/>
      <point x="108" y="0" type="line"/>
      <point x="188" y="0" type="line"/>
      <point x="188" y="660" type="line"/>
    </contour>
    <contour>
      <point x="279" y="371" type="line"/>
      <point x="532" y="0" type="line"/>
      <point x="628" y="0" type="line"/>
      <point x="345" y="416" type="line"/>
    </contour>
  </outline>
</glyph>
<glyph name="M" format="2">
  <advance width="854"/>
  <unicode hex="004D"/>
  <anchor x="427" y="0" name="bottom"/>
  <anchor x="453" y="0" name="bottomC"/>
  <anchor x="746" y="0" name="ogonek"/>
  <anchor x="427" y="660" name="top"/>
  <outline>
    <contour>
      <point x="623" y="660" type="line"/>
      <point x="479" y="258" type="line"/>
      <point x="428" y="94" type="line"/>
      <point x="426" y="94" type="line"/>
      <point x="376" y="259" type="line"/>
      <point x="231" y="660" type="line"/>
      <point x="108" y="660" type="line"/>
      <point x="108" y="0" type="line"/>
      <point x="184" y="0" type="line"/>
      <point x="184" y="415" type="line"/>
      <point x="175" y="589" type="line"/>
      <point x="176" y="589" type="line"/>
      <point x="393" y="0" type="line"/>
      <point x="461" y="0" type="line"/>
      <point x="678" y="589" type="line"/>
      <point x="679" y="589" type="line"/>
      <point x="670" y="415" type="line"/>
      <point x="670" y="0" type="line"/>
      <point x="746" y="0" type="line"/>
      <point x="746" y="660" type="line"/>
    </contour>
  </outline>
</glyph>
<glyph name="O" format="2">
  <advance width="748"/>
  <unicode hex="004F"/>
  <anchor x="374" y="0" name="bottom"/>
  <anchor x="374" y="0" name="bottomC"/>
  <anchor x="452" y="0" name="ogonek"/>
  <anchor x="374" y="660" name="top"/>
  <outline>
    <contour>
      <point x="186" y="670"/>
      <point x="68" y="539"/>
      <point x="68" y="330" type="curve" smooth="yes"/>
      <point x="68" y="121"/>
      <point x="186" y="-10"/>
      <point x="374" y="-10" type="curve" smooth="yes"/>
      <point x="562" y="-10"/>
      <point x="680" y="121"/>
      <point x="680" y="330" type="curve" smooth="yes"/>
      <point x="680" y="539"/>
      <point x="562" y="670"/>
      <point x="374" y="670" type="curve" smooth="yes"/>
    </contour>
    <contour>
      <point x="511" y="595"/>
      <point x="596" y="496"/>
      <point x="596" y="330" type="curve" smooth="yes"/>
      <point x="596" y="164"/>
      <point x="511" y="65"/>
      <point x="374" y="65" type="curve" smooth="yes"/>
      <point x="237" y="65"/>
      <point x="152" y="164"/>
      <point x="152" y="330" type="curve" smooth="yes"/>
      <point x="152" y="496"/>
      <point x="237" y="595"/>
      <point x="374" y="595" type="curve" smooth="yes"/>
    </contour>
  </outline>
</glyph>
<glyph name="Q" format="2">
  <advance width="748"/>
  <unicode hex="0051"/>
  <anchor x="374" y="-210" name="bottom"/>
  <anchor x="526" y="-190" name="bottomC"/>
  <anchor x="575" y="-190" name="ogonek"/>
  <anchor x="374" y="660" name="top"/>
  <outline>
    <contour>
      <point x="336" y="20" type="line"/>
      <point x="334" y="-145"/>
      <point x="431" y="-195"/>
      <point x="534" y="-195" type="curve" smooth="yes"/>
      <point x="583" y="-195"/>
      <point x="648" y="-179"/>
      <point x="680" y="-151" type="curve"/>
      <point x="654" y="-77" type="line"/>
      <point x="629" y="-100"/>
      <point x="585" y="-114"/>
      <point x="536" y="-114" type="curve" smooth="yes"/>
      <point x="463" y="-114"/>
      <point x="401" y="-93"/>
      <point x="408" y="37" type="curve"/>
    </contour>
    <component base="O"/>
  </outline>
</glyph>
<glyph name="R" format="2">
  <advance width="665"/>
  <unicode hex="0052"/>
  <anchor x="365" y="0" name="bottom"/>
  <anchor x="581" y="0" name="bottomC"/>
  <anchor x="621" y="0" name="ogonek"/>
  <anchor x="322" y="660" name="top"/>
  <outline>
    <contour>
      <point x="148" y="660" type="line"/>
      <point x="148" y="585" type="line"/>
      <point x="357" y="585" type="line" smooth="yes"/>
      <point x="451" y="585"/>
      <point x="497" y="546"/>
      <point x="497" y="467" type="curve" smooth="yes"/>
      <point x="497" y="388"/>
      <point x="451" y="349"/>
      <point x="357" y="349" type="curve" smooth="yes"/>
      <point x="148" y="349" type="line"/>
      <point x="148" y="274" type="line"/>
      <point x="358" y="274" type="line" smooth="yes"/>
      <point x="492" y="274"/>
      <point x="581" y="348"/>
      <point x="581" y="467" type="curve" smooth="yes"/>
      <point x="581" y="586"/>
      <point x="492" y="660"/>
      <point x="358" y="660" type="curve" smooth="yes"/>
    </contour>
    <contour>
      <point x="108" y="660" type="line"/>
      <point x="108" y="0" type="line"/>
      <point x="188" y="0" type="line"/>
      <point x="188" y="660" type="line"/>
    </contour>
    <contour>
      <point x="336" y="289" type="line"/>
      <point x="526" y="0" type="line"/>
      <point x="621" y="0" type="line"/>
      <point x="403" y="333" type="line"/>
    </contour>
  </outline>
</glyph>
<glyph name="S" format="2">
  <advance width="641"/>
  <unicode hex="0053"/>
  <anchor x="359" y="0" name="bottom"/>
  <anchor x="329" y="0" name="bottomC"/>
  <anchor x="409" y="0" name="ogonek"/>
  <anchor x="326" y="660" name="top"/>
  <outline>
    <contour>
      <point x="167" y="670"/>
      <point x="74" y="580"/>
      <point x="74" y="474" type="curve" smooth="yes"/>
      <point x="74" y="373"/>
      <point x="138" y="319"/>
      <point x="316" y="288" type="curve" smooth="yes"/>
      <point x="455" y="264"/>
      <point x="498" y="231"/>
      <point x="498" y="174" type="curve" smooth="yes"/>
      <point x="498" y="103"/>
      <point x="430" y="65"/>
      <point x="328" y="65" type="curve" smooth="yes"/>
      <point x="220" y="65"/>
      <point x="152" y="113"/>
      <point x="117" y="189" type="curve"/>
      <point x="48" y="133" type="line"/>
      <point x="94" y="51"/>
      <point x="186" y="-10"/>
      <point x="326" y="-10" type="curve" smooth="yes"/>
      <point x="480" y="-10"/>
      <point x="581" y="65"/>
      <point x="581" y="178" type="curve" smooth="yes"/>
      <point x="581" y="280"/>
      <point x="518" y="336"/>
      <point x="341" y="366" type="curve" smooth="yes"/>
      <point x="202" y="390"/>
      <point x="158" y="421"/>
      <point x="158" y="483" type="curve" smooth="yes"/>
      <point x="158" y="546"/>
      <point x="216" y="595"/>
      <point x="321" y="595" type="curve" smooth="yes"/>
      <point x="418" y="595"/>
      <point x="466" y="561"/>
      <point x="506" y="474" type="curve"/>
      <point x="575" y="530" type="line"/>
      <point x="524" y="622"/>
      <point x="441" y="670"/>
      <point x="320" y="670" type="curve" smooth="yes"/>
    </contour>
  </outline>
</glyph>
<glyph name="X" format="2">
  <advance width="601"/>
  <unicode hex="0058"/>
  <anchor x="300" y="0" name="bottom"/>
  <anchor x="535" y="0" name="bottomC"/>
  <anchor x="569" y="0" name="ogonek"/>
  <anchor x="300" y="660" name="top"/>
  <outline>
    <contour>
      <point x="477" y="660" type="line"/>
      <point x="290" y="375" type="line"/>
      <point x="283" y="375" type="line"/>
      <point x="25" y="0" type="line"/>
      <point x="118" y="0" type="line"/>
      <point x="320" y="308" type="line"/>
      <point x="327" y="308" type="line"/>
      <point x="562" y="660" type="line"/>
    </contour>
    <contour>
      <point x="45" y="660" type="line"/>
      <point x="272" y="312" type="line"/>
      <point x="280" y="300" type="line"/>
      <point x="476" y="0" type="line"/>
      <point x="569" y="0" type="line"/>
      <point x="332" y="366" type="line"/>
      <point x="323" y="379" type="line"/>
      <point x="140" y="660" type="line"/>
    </contour>
  </outline>
</glyph>
<glyph name="Y" format="2">
  <advance width="572"/>
  <unicode hex="0059"/>
  <anchor x="286" y="0" name="bottom"/>
  <anchor x="286" y="0" name="bottomC"/>
  <anchor x="326" y="0" name="ogonek"/>
  <anchor x="286" y="660" name="top"/>
  <outline>
    <contour>
      <point x="467" y="660" type="line"/>
      <point x="339" y="434" type="line"/>
      <point x="286" y="340" type="line"/>
      <point x="233" y="434" type="line"/>
      <point x="105" y="660" type="line"/>
      <point x="10" y="660" type="line"/>
      <point x="246" y="258" type="line"/>
      <point x="246" y="0" type="line"/>
      <point x="326" y="0" type="line"/>
      <point x="326" y="258" type="line"/>
      <point x="562" y="660" type="line"/>
    </contour>
  </outline>
</glyph>
<glyph name="d" format="2">
  <advance width="630"/>
  <unicode hex="0064"/>
  <anchor x="308" y="0" name="bottom"/>
  <anchor x="308" y="0" name="bottomC"/>
  <anchor x="323" y="250" name="center"/>
  <anchor x="393" y="17" name="ogonek"/>
  <anchor x="497" y="730" name="top"/>
  <anchor x="614" y="730" name="topright"/>
  <outline>
    <contour>
      <point x="457" y="730" type="line"/>
      <point x="457" y="123" type="line"/>
      <point x="460" y="117" type="line"/>
      <point x="467" y="0" type="line"/>
      <point x="537" y="0" type="line"/>
      <point x="537" y="117" type="line"/>
      <point x="537" y="730" type="line"/>
    </contour>
    <component base="bowl" xOffset="-17"/>
  </outline>
</glyph>
<glyph name="k" format="2">
  <advance width="567"/>
  <unicode hex="006B"/>
  <anchor x="315" y="0" name="bottom"/>
  <anchor x="133" y="730" name="top"/>
  <outline>
    <contour>
      <point x="432" y="500" type="line"/>
      <point x="133" y="201" type="line"/>
      <point x="133" y="101" type="line"/>
      <point x="297" y="265" type="line"/>
      <point x="316" y="284" type="line"/>
      <point x="532" y="500" type="line"/>
    </contour>
    <contour>
      <point x="93" y="730" type="line"/>
      <point x="93" y="0" type="line"/>
      <point x="173" y="0" type="line"/>
      <point x="173" y="730" type="line"/>
    </contour>
    <contour>
      <point x="256" y="280" type="line"/>
      <point x="447" y="0" type="line"/>
      <point x="544" y="0" type="line"/>
      <point x="323" y="325" type="line"/>
    </contour>
  </outline>
</glyph>
<glyph name="l" format="2">
  <advance width="306"/>
  <unicode hex="006C"/>
  <anchor x="214" y="0" name="bottom"/>
  <anchor x="203" y="0" name="bottomC"/>
  <anchor x="269" y="355" name="center"/>
  <anchor x="266" y="0" name="ogonek"/>
  <anchor x="129" y="730" name="top"/>
  <anchor x="246" y="730" name="topright"/>
  <outline>
    <contour>
      <point x="89" y="730" type="line"/>
      <point x="89" y="124" type="line" smooth="yes"/>
      <point x="89" y="33"/>
      <point x="128" y="-10"/>
      <point x="209" y="-10" type="curve" smooth="yes"/>
      <point x="235" y="-10"/>
      <point x="262" y="-5"/>
      <point x="283" y="4" type="curve"/>
      <point x="296" y="81" type="line"/>
      <point x="267" y="70"/>
      <point x="250" y="67"/>
      <point x="223" y="67" type="curve" smooth="yes"/>
      <point x="182" y="67"/>
      <point x="169" y="83"/>
      <point x="169" y="134" type="curve" smooth="yes"/>
      <point x="169" y="730" type="line"/>
    </contour>
  </outline>
</glyph>
<glyph name="o" format="2">
  <advance width="608"/>
  <unicode hex="006F"/>
  <anchor x="304" y="0" name="bottom"/>
  <anchor x="304" y="0" name="bottomC"/>
  <anchor x="421" y="17" name="ogonek"/>
  <anchor x="304" y="500" name="top"/>
  <outline>
    <contour>
      <point x="153" y="510"/>
      <point x="62" y="412"/>
      <point x="62" y="250" type="curve" smooth="yes"/>
      <point x="62" y="88"/>
      <point x="153" y="-10"/>
      <point x="304" y="-10" type="curve" smooth="yes"/>
      <point x="455" y="-10"/>
      <point x="546" y="88"/>
      <point x="546" y="250" type="curve" smooth="yes"/>
      <point x="546" y="412"/>
      <point x="455" y="510"/>
      <point x="304" y="510" type="curve" smooth="yes"/>
    </contour>
    <contour>
      <point x="405" y="441"/>
      <point x="466" y="369"/>
      <point x="466" y="250" type="curve" smooth="yes"/>
      <point x="466" y="131"/>
      <point x="405" y="59"/>
      <point x="304" y="59" type="curve" smooth="yes"/>
      <point x="203" y="59"/>
      <point x="142" y="131"/>
      <point x="142" y="250" type="curve" smooth="yes"/>
      <point x="142" y="369"/>
      <point x="203" y="441"/>
      <point x="304" y="441" type="curve" smooth="yes"/>
    </contour>
  </outline>
</glyph>
<glyph name="p" format="2">
  <advance width="630"/>
  <unicode hex="0070"/>
  <anchor x="133" y="-210" name="bottom"/>
  <anchor x="322" y="0" name="bottomC"/>
  <anchor x="445" y="17" name="ogonek"/>
  <anchor x="322" y="500" name="top"/>
  <outline>
    <contour>
      <point x="93" y="500" type="line"/>
      <point x="93" y="383" type="line"/>
      <point x="93" y="-210" type="line"/>
      <point x="173" y="-210" type="line"/>
      <point x="173" y="376" type="line"/>
      <point x="170" y="383" type="line"/>
      <point x="163" y="500" type="line"/>
    </contour>
    <component base="bowl" xScale="-1" yScale="-1" xOffset="647" yOffset="500"/>
  </outline>
</glyph>
<glyph name="r" format="2">
  <advance width="408"/>
  <unicode hex="0072"/>
  <anchor x="154" y="0" name="bottom"/>
  <anchor x="133" y="0" name="bottomC"/>
  <anchor x="173" y="0" name="ogonek"/>
  <anchor x="220" y="500" name="top"/>
  <outline>
    <contour>
      <point x="210" y="510"/>
      <point x="146" y="438"/>
      <point x="146" y="295" type="curve"/>
      <point x="173" y="270" type="line"/>
      <point x="173" y="382"/>
      <point x="245" y="435"/>
      <point x="305" y="435" type="curve" smooth="yes"/>
      <point x="331" y="435"/>
      <point x="353" y="430"/>
      <point x="368" y="422" type="curve"/>
      <point x="384" y="500" type="line"/>
      <point x="369" y="508"/>
      <point x="346" y="510"/>
      <point x="329" y="510" type="curve" smooth="yes"/>
    </contour>
    <contour>
      <point x="93" y="500" type="line"/>
      <point x="93" y="0" type="line"/>
      <point x="173" y="0" type="line"/>
      <point x="173" y="372" type="line"/>
      <point x="173" y="383" type="line"/>
      <point x="158" y="500" type="line"/>
    </contour>
  </outline>
</glyph>
<glyph name="t" format="2">
  <advance width="419"/>
  <unicode hex="0074"/>
  <anchor x="256" y="0" name="bottom"/>
  <anchor x="300" y="0" name="bottomC"/>
  <anchor x="164" y="250" name="center"/>
  <anchor x="373" y="17" name="ogonek"/>
  <anchor x="171" y="730" name="top"/>
  <anchor x="292" y="767" name="topright"/>
  <outline>
    <contour>
      <point x="131" y="620" type="line"/>
      <point x="131" y="124" type="line" smooth="yes"/>
      <point x="132" y="27"/>
      <point x="196" y="-10"/>
      <point x="270" y="-10" type="curve" smooth="yes"/>
      <point x="325" y="-10"/>
      <point x="368" y="7"/>
      <point x="399" y="35" type="curve"/>
      <point x="371" y="102" type="line"/>
      <point x="348" y="79"/>
      <point x="322" y="65"/>
      <point x="286" y="65" type="curve" smooth="yes"/>
      <point x="242" y="65"/>
      <point x="211" y="89"/>
      <point x="211" y="138" type="curve" smooth="yes"/>
      <point x="211" y="642" type="line"/>
    </contour>
    <contour>
      <point x="31" y="500" type="line"/>
      <point x="31" y="431" type="line"/>
      <point x="396" y="431" type="line"/>
      <point x="396" y="500" type="line"/>
    </contour>
  </outline>
</glyph>
<glyph name="z" format="2">
  <advance width="534"/>
  <unicode hex="007A"/>
  <anchor x="252" y="0" name="bottom"/>
  <anchor x="252" y="0" name="bottomC"/>
  <anchor x="479" y="0" name="ogonek"/>
  <anchor x="252" y="500" name="top"/>
  <outline>
    <contour>
      <point x="479" y="0" type="line"/>
      <point x="479" y="69" type="line"/>
      <point x="244" y="69" type="line"/>
      <point x="147" y="67" type="line"/>
      <point x="209" y="132" type="line"/>
      <point x="471" y="439" type="line"/>
      <point x="471" y="500" type="line"/>
      <point x="60" y="500" type="line"/>
      <point x="60" y="431" type="line"/>
      <point x="293" y="431" type="line"/>
      <point x="382" y="433" type="line"/>
      <point x="319" y="368" type="line"/>
      <point x="57" y="61" type="line"/>
      <point x="57" y="0" type="line"/>
    </contour>
  </outline>
</glyph>
<glyph name="asciitilde" format="2">
  <advance width="540"/>
  <unicode hex="007E"/>
  <outline>
    <contour>
      <point x="421" y="384" type="line"/>
      <point x="413" y="339"/>
      <point x="394" y="310"/>
      <point x="359" y="310" type="curve" smooth="yes"/>
      <point x="298" y="310"/>
      <point x="263" y="384"/>
      <point x="174" y="384" type="curve" smooth="yes"/>
      <point x="93" y="384"/>
      <point x="51" y="333"/>
      <point x="43" y="235" type="curve"/>
      <point x="119" y="235" type="line"/>
      <point x="127" y="280"/>
      <point x="146" y="309"/>
      <point x="181" y="309" type="curve" smooth="yes"/>
      <point x="244" y="309"/>
      <point x="276" y="235"/>
      <point x="367" y="235" type="curve" smooth="yes"/>
      <point x="445" y="235"/>
      <point x="489" y="286"/>
      <point x="497" y="384" type="curve"/>
    </contour>
  </outline>
</glyph>
<glyph name="cent" format="2">
  <advance width="567"/>
  <unicode hex="00A2"/>
  <outline>
    <contour>
      <point x="159" y="510"/>
      <point x="68" y="412"/>
      <point x="68" y="250" type="curve" smooth="yes"/>
      <point x="68" y="88"/>
      <point x="159" y="-10"/>
      <point x="310" y="-10" type="curve" smooth="yes"/>
      <point x="416" y="-10"/>
      <point x="488" y="46"/>
      <point x="520" y="138" type="curve"/>
      <point x="448" y="163" type="line"/>
      <point x="428" y="92"/>
      <point x="381" y="55"/>
      <point x="308" y="55" type="curve" smooth="yes"/>
      <point x="203" y="55"/>
      <point x="143" y="126"/>
      <point x="143" y="250" type="curve" smooth="yes"/>
      <point x="143" y="374"/>
      <point x="203" y="445"/>
      <point x="308" y="445" type="curve" smooth="yes"/>
      <point x="373" y="445"/>
      <point x="418" y="409"/>
      <point x="439" y="341" type="curve"/>
      <point x="515" y="377" type="line"/>
      <point x="480" y="459"/>
      <point x="413" y="510"/>
      <point x="310" y="510" type="curve" smooth="yes"/>
    </contour>
    <contour>
      <point x="270" y="600" type="line"/>
      <point x="270" y="-100" type="line"/>
      <point x="337" y="-100" type="line"/>
      <point x="337" y="600" type="line"/>
    </contour>
  </outline>
</glyph>
<glyph name="brokenbar" format="2">
  <advance width="255"/>
  <unicode hex="00A6"/>
  <outline>
    <contour>
      <point x="93" y="730" type="line"/>
      <point x="93" y="367" type="line"/>
      <point x="162" y="367" type="line"/>
      <point x="162" y="730" type="line"/>
    </contour>
    <contour>
      <point x="93" y="195" type="line"/>
      <point x="93" y="-168" type="line"/>
      <point x="162" y="-168" type="line"/>
      <point x="162" y="195" type="line"/>
    </contour>
  </outline>
</glyph>
<glyph name="copyright" format="2">
  <advance width="820"/>
  <unicode hex="00A9"/>
  <outline>
    <contour>
      <point x="202" y="670"/>
      <point x="68" y="536"/>
      <point x="68" y="330" type="curve" smooth="yes"/>
      <point x="68" y="124"/>
      <point x="202" y="-10"/>
      <point x="410" y="-10" type="curve" smooth="yes"/>
      <point x="618" y="-10"/>
      <point x="752" y="124"/>
      <point x="752" y="330" type="curve" smooth="yes"/>
      <point x="752" y="536"/>
      <point x="618" y="670"/>
      <point x="410" y="670" type="curve" smooth="yes"/>
    </contour>
    <contour>
      <point x="304" y="513"/>
      <point x="235" y="443"/>
      <point x="235" y="328" type="curve" smooth="yes"/>
      <point x="235" y="213"/>
      <point x="304" y="143"/>
      <point x="417" y="143" type="curve" smooth="yes"/>
      <point x="498" y="143"/>
      <point x="552" y="183"/>
      <point x="577" y="248" type="curve"/>
      <point x="522" y="270" type="line"/>
      <point x="505" y="225"/>
      <point x="469" y="203"/>
      <point x="416" y="203" type="curve" smooth="yes"/>
      <point x="345" y="203"/>
      <point x="302" y="249"/>
      <point x="302" y="328" type="curve" smooth="yes"/>
      <point x="302" y="407"/>
      <point x="345" y="453"/>
      <point x="416" y="453" type="curve" smooth="yes"/>
      <point x="466" y="453"/>
      <point x="498" y="432"/>
      <point x="515" y="389" type="curve"/>
      <point x="573" y="418" type="line"/>
      <point x="547" y="477"/>
      <point x="496" y="513"/>
      <point x="417" y="513" type="curve" smooth="yes"/>
    </contour>
    <contour>
      <point x="575" y="605"/>
      <point x="681" y="497"/>
      <point x="681" y="330" type="curve" smooth="yes"/>
      <point x="681" y="163"/>
      <point x="575" y="55"/>
      <point x="410" y="55" type="curve" smooth="yes"/>
      <point x="245" y="55"/>
      <point x="139" y="163"/>
      <point x="139" y="330" type="curve" smooth="yes"/>
      <point x="139" y="497"/>
      <point x="245" y="605"/>
      <point x="410" y="605" type="curve" smooth="yes"/>
    </contour>
  </outline>
</glyph>
<glyph name="plusminus" format="2">
  <advance width="604"/>
  <unicode hex="00B1"/>
  <outline>
    <contour>
      <point x="265" y="640" type="line"/>
      <point x="265" y="154" type="line"/>
      <point x="340" y="154" type="line"/>
      <point x="340" y="640" type="line"/>
    </contour>
    <contour>
      <point x="59" y="434" type="line"/>
      <point x="59" y="359" type="line"/>
      <point x="545" y="359" type="line"/>
      <point x="545" y="434" type="line"/>
    </contour>
    <contour>
      <point x="59" y="75" type="line"/>
      <point x="59" y="0" type="line"/>
      <point x="545" y="0" type="line"/>
      <point x="545" y="75" type="line"/>
    </contour>
  </outline>
</glyph>
<glyph name="threesuperior" format="2">
  <advance width="362"/>
  <unicode hex="00B3"/>
  <anchor x="174" y="530" name="_indexring"/>
  <outline>
    <contour>
      <point x="110" y="735"/>
      <point x="53" y="705"/>
      <point x="36" y="640" type="curve"/>
      <point x="101" y="617" type="line"/>
      <point x="109" y="657"/>
      <point x="136" y="677"/>
      <point x="177" y="677" type="curve" smooth="yes"/>
      <point x="220" y="677"/>
      <point x="245" y="656"/>
      <point x="245" y="616" type="curve" smooth="yes"/>
      <point x="245" y="578"/>
      <point x="221" y="556"/>
      <point x="174" y="556" type="curve" smooth="yes"/>
      <point x="153" y="556" type="line"/>
      <point x="153" y="506" type="line"/>
      <point x="177" y="506" type="line" smooth="yes"/>
      <point x="229" y="506"/>
      <point x="255" y="487"/>
      <point x="255" y="450" type="curve" smooth="yes"/>
      <point x="255" y="410"/>
      <point x="224" y="385"/>
      <point x="177" y="385" type="curve" smooth="yes"/>
      <point x="126" y="385"/>
      <point x="99" y="407"/>
      <point x="91" y="453" type="curve"/>
      <point x="24" y="423" type="line"/>
      <point x="45" y="358"/>
      <point x="97" y="327"/>
      <point x="178" y="327" type="curve" smooth="yes"/>
      <point x="265" y="327"/>
      <point x="328" y="372"/>
      <point x="328" y="440" type="curve" smooth="yes"/>
      <point x="328" y="501"/>
      <point x="280" y="531"/>
      <point x="240" y="532" type="curve"/>
      <point x="240" y="533" type="line"/>
      <point x="274" y="535"/>
      <point x="319" y="566"/>
      <point x="319" y="627" type="curve" smooth="yes"/>
      <point x="319" y="691"/>
      <point x="269" y="735"/>
      <point x="181" y="735" type="curve" smooth="yes"/>
    </contour>
  </outline>
</glyph>
<glyph name="paragraph" format="2">
  <advance width="657"/>
  <unicode hex="00B6"/>
  <outline>
    <contour>
      <point x="315" y="660" type="line" smooth="yes"/>
      <point x="150" y="660"/>
      <point x="41" y="567"/>
      <point x="41" y="425" type="curve" smooth="yes"/>
      <point x="41" y="286"/>
      <point x="142" y="191"/>
      <point x="294" y="191" type="curve"/>
      <point x="294" y="-100" type="line"/>
      <point x="367" y="-100" type="line"/>
      <point x="367" y="593" type="line"/>
      <point x="496" y="593" type="line"/>
      <point x="496" y="-100" type="line"/>
      <point x="566" y="-100" type="line"/>
      <point x="566" y="660" type="line"/>
    </contour>
    <contour>
      <point x="294" y="258" type="line"/>
      <point x="180" y="258"/>
      <point x="117" y="321"/>
      <point x="117" y="425" type="curve" smooth="yes"/>
      <point x="117" y="527"/>
      <point x="180" y="593"/>
      <point x="294" y="593" type="curve"/>
    </contour>
  </outline>
</glyph>
<glyph name="Aring" format="2">
  <advance width="660"/>
  <unicode hex="00C5"/>
  <anchor x="330" y="0" name="bottom"/>
  <anchor x="612" y="0" name="bottomC"/>
  <anchor x="634" y="0" name="ogonek"/>
  <anchor x="331" y="842" name="top"/>
  <outline>
    <contour>
      <point x="256" y="852"/>
      <point x="205" y="804"/>
      <point x="205" y="734" type="curve" smooth="yes"/>
      <point x="205" y="663"/>
      <point x="256" y="615"/>
      <point x="331" y="615" type="curve" smooth="yes"/>
      <point x="406" y="615"/>
      <point x="456" y="663"/>
      <point x="456" y="734" type="curve" smooth="yes"/>
      <point x="456" y="804"/>
      <point x="406" y="852"/>
      <point x="331" y="852" type="curve" smooth="yes"/>
    </contour>
    <contour>
      <point x="371" y="803"/>
      <point x="401" y="774"/>
      <point x="401" y="734" type="curve" smooth="yes"/>
      <point x="401" y="694"/>
      <point x="371" y="665"/>
      <point x="330" y="665" type="curve" smooth="yes"/>
      <point x="289" y="665"/>
      <point x="259" y="694"/>
      <point x="259" y="734" type="curve" smooth="yes"/>
      <point x="259" y="774"/>
      <point x="289" y="803"/>
      <point x="330" y="803" type="curve" smooth="yes"/>
    </contour>
    <contour>
      <point x="110" y="0" type="line"/>
      <point x="299" y="495" type="line"/>
      <point x="328" y="584" type="line"/>
      <point x="330" y="584" type="line"/>
      <point x="361" y="492" type="line"/>
      <point x="549" y="0" type="line"/>
      <point x="634" y="0" type="line"/>
      <point x="378" y="660" type="line"/>
      <point x="283" y="660" type="line"/>
      <point x="26" y="0" type="line"/>
    </contour>
    <contour>
      <point x="505" y="183" type="line"/>
      <point x="505" y="258" type="line"/>
      <point x="152" y="258" type="line"/>
      <point x="152" y="183" type="line"/>
    </contour>
  </outline>
</glyph>
<glyph name="idieresis" format="2">
  <advance width="266"/>
  <unicode hex="00EF"/>
  <anchor x="133" y="0" name="bottomC"/>
  <anchor x="133" y="500" name="top"/>
  <anchor x="173" y="0" name="ogonek"/>
  <anchor x="133" y="0" name="bottom"/>
  <outline>
    <contour>
      <point x="247" y="582"/>
      <point x="270" y="605"/>
      <point x="270" y="639" type="curve" smooth="yes"/>
      <point x="270" y="673"/>
      <point x="247" y="696"/>
      <point x="213" y="696" type="curve" smooth="yes"/>
      <point x="178" y="696"/>
      <point x="155" y="673"/>
      <point x="155" y="639" type="curve" smooth="yes"/>
      <point x="155" y="605"/>
      <point x="178" y="582"/>
      <point x="213" y="582" type="curve" smooth="yes"/>
    </contour>
    <contour>
      <point x="88" y="582"/>
      <point x="111" y="605"/>
      <point x="111" y="639" type="curve" smooth="yes"/>
      <point x="111" y="673"/>
      <point x="88" y="696"/>
      <point x="53" y="696" type="curve" smooth="yes"/>
      <point x="19" y="696"/>
      <point x="-4" y="673"/>
      <point x="-4" y="639" type="curve" smooth="yes"/>
      <point x="-4" y="605"/>
      <point x="19" y="582"/>
      <point x="53" y="582" type="curve" smooth="yes"/>
    </contour>
    <component base="idotless"/>
  </outline>
</glyph>
<glyph name="divide" format="2">
  <advance width="604"/>
  <unicode hex="00F7"/>
  <outline>
    <contour>
      <point x="59" y="354" type="line"/>
      <point x="59" y="279" type="line"/>
      <point x="545" y="279" type="line"/>
      <point x="545" y="354" type="line"/>
    </contour>
    <component base="period" xOffset="169" yOffset="65"/>
    <component base="period" xOffset="169" yOffset="456"/>
  </outline>
</glyph>
<glyph name="thorn" format="2">
  <advance width="630"/>
  <unicode hex="00FE"/>
  <anchor x="133" y="-210" name="bottom"/>
  <anchor x="322" y="0" name="bottomC"/>
  <anchor x="445" y="17" name="ogonek"/>
  <anchor x="133" y="730" name="top"/>
  <outline>
    <contour>
      <point x="93" y="730" type="line"/>
      <point x="93" y="-210" type="line"/>
      <point x="173" y="-210" type="line"/>
      <point x="173" y="730" type="line"/>
    </contour>
    <contour>
      <point x="222" y="510"/>
      <point x="144" y="432"/>
      <point x="144" y="337" type="curve"/>
      <point x="173" y="256" type="line"/>
      <point x="173" y="369"/>
      <point x="235" y="440"/>
      <point x="330" y="440" type="curve" smooth="yes"/>
      <point x="428" y="440"/>
      <point x="487" y="366"/>
      <point x="487" y="250" type="curve" smooth="yes"/>
      <point x="487" y="134"/>
      <point x="428" y="60"/>
      <point x="330" y="60" type="curve" smooth="yes"/>
      <point x="235" y="60"/>
      <point x="173" y="131"/>
      <point x="173" y="244" type="curve"/>
      <point x="144" y="163" type="line"/>
      <point x="144" y="68"/>
      <point x="222" y="-10"/>
      <point x="339" y="-10" type="curve" smooth="yes"/>
      <point x="478" y="-10"/>
      <point x="567" y="87"/>
      <point x="567" y="250" type="curve" smooth="yes"/>
      <point x="567" y="413"/>
      <point x="478" y="510"/>
      <point x="339" y="510" type="curve" smooth="yes"/>
    </contour>
  </outline>
</glyph>
<glyph name="dcroat" format="2">
  <advance width="629"/>
  <unicode hex="0111"/>
  <anchor x="308" y="0" name="bottom"/>
  <anchor x="308" y="0" name="bottomC"/>
  <anchor x="393" y="17" name="ogonek"/>
  <anchor x="497" y="730" name="top"/>
  <anchor x="323" y="250" name="center"/>
  <anchor x="614" y="730" name="topright"/>
  <outline>
    <contour>
      <point x="300" y="627" type="line"/>
      <point x="300" y="566" type="line"/>
      <point x="614" y="566" type="line"/>
      <point x="614" y="627" type="line"/>
    </contour>
    <component base="d"/>
  </outline>
</glyph>
<glyph name="iogonek" format="2">
  <advance width="266"/>
  <unicode hex="012F"/>
  <anchor x="133" y="0" name="bottom"/>
  <anchor x="133" y="0" name="bottomC"/>
  <anchor x="173" y="0" name="ogonek"/>
  <anchor x="133" y="706" name="top"/>
  <outline>
    <contour>
      <point x="127" y="20" type="line"/>
      <point x="48" y="-19"/>
      <point x="8" y="-60"/>
      <point x="8" y="-117" type="curve" smooth="yes"/>
      <point x="8" y="-177"/>
      <point x="53" y="-215"/>
      <point x="124" y="-215" type="curve" smooth="yes"/>
      <point x="161" y="-215"/>
      <point x="187" y="-208"/>
      <point x="209" y="-194" type="curve"/>
      <point x="190" y="-144" type="line"/>
      <point x="174" y="-154"/>
      <point x="150" y="-159"/>
      <point x="131" y="-159" type="curve" smooth="yes"/>
      <point x="94" y="-159"/>
      <point x="74" y="-138"/>
      <point x="74" y="-109" type="curve" smooth="yes"/>
      <point x="74" y="-72"/>
      <point x="95" y="-44"/>
      <point x="173" y="0" type="curve"/>
    </contour>
    <component base="i"/>
  </outline>
</glyph>
<glyph name="uni0162" format="2">
  <advance width="604"/>
  <unicode hex="0162"/>
  <anchor x="302" y="-210" name="bottom"/>
  <anchor x="302" y="-210" name="bottomC"/>
  <anchor x="332" y="-210" name="ogonek"/>
  <anchor x="302" y="660" name="top"/>
  <anchor x="302" y="330" name="center"/>
  <outline>
    <contour>
      <point x="320" y="-39"/>
      <point x="342" y="-59"/>
      <point x="342" y="-97" type="curve" smooth="yes"/>
      <point x="342" y="-132"/>
      <point x="317" y="-155"/>
      <point x="285" y="-155" type="curve" smooth="yes"/>
      <point x="257" y="-155"/>
      <point x="232" y="-142"/>
      <point x="216" y="-125" type="curve"/>
      <point x="186" y="-180" type="line"/>
      <point x="214" y="-205"/>
      <point x="249" y="-215"/>
      <point x="296" y="-215" type="curve" smooth="yes"/>
      <point x="368" y="-215"/>
      <point x="413" y="-164"/>
      <point x="413" y="-109" type="curve" smooth="yes"/>
      <point x="413" y="-65"/>
      <point x="392" y="-23"/>
      <point x="335" y="14" type="curve"/>
      <point x="262" y="0" type="line"/>
    </contour>
    <component base="T"/>
  </outline>
</glyph>
<glyph name="uni0163" format="2">
  <advance width="439"/>
  <unicode hex="0163"/>
  <anchor x="256" y="-210" name="bottom"/>
  <anchor x="254" y="-210" name="bottomC"/>
  <anchor x="164" y="250" name="center"/>
  <anchor x="282" y="-210" name="ogonek"/>
  <anchor x="171" y="730" name="top"/>
  <anchor x="292" y="767" name="topright"/>
  <outline>
    <contour>
      <point x="275" y="-32"/>
      <point x="296" y="-55"/>
      <point x="296" y="-97" type="curve" smooth="yes"/>
      <point x="296" y="-132"/>
      <point x="271" y="-155"/>
      <point x="239" y="-155" type="curve" smooth="yes"/>
      <point x="211" y="-155"/>
      <point x="186" y="-142"/>
      <point x="170" y="-125" type="curve"/>
      <point x="140" y="-180" type="line"/>
      <point x="168" y="-205"/>
      <point x="203" y="-215"/>
      <point x="250" y="-215" type="curve" smooth="yes"/>
      <point x="324" y="-215"/>
      <point x="366" y="-164"/>
      <point x="366" y="-108" type="curve" smooth="yes"/>
      <point x="366" y="-54"/>
      <point x="326" y="6"/>
      <point x="238" y="28" type="curve"/>
      <point x="197" y="7" type="line"/>
    </contour>
    <component base="t"/>
  </outline>
</glyph>
<glyph name="longs" format="2">
  <advance width="260"/>
  <unicode hex="017F"/>
  <anchor x="150" y="0" name="bottom"/>
  <anchor x="129" y="0" name="bottomC"/>
  <anchor x="169" y="0" name="ogonek"/>
  <anchor x="195" y="730" name="top"/>
  <outline>
    <contour>
      <point x="169" y="0" type="line"/>
      <point x="169" y="576" type="line" smooth="yes"/>
      <point x="169" y="636"/>
      <point x="195" y="662"/>
      <point x="240" y="662" type="curve" smooth="yes"/>
      <point x="258" y="662"/>
      <point x="272" y="657"/>
      <point x="285" y="647" type="curve"/>
      <point x="301" y="712" type="line"/>
      <point x="287" y="727"/>
      <point x="262" y="735"/>
      <point x="224" y="735" type="curve" smooth="yes"/>
      <point x="125" y="735"/>
      <point x="89" y="673"/>
      <point x="89" y="584" type="curve" smooth="yes"/>
      <point x="89" y="0" type="line"/>
    </contour>
  </outline>
</glyph>
<glyph name="ring" format="2">
  <advance width="500"/>
  <unicode hex="02DA"/>
  <anchor x="253" y="500" name="_top"/>
  <outline>
    <contour>
      <point x="175" y="812"/>
      <point x="124" y="764"/>
      <point x="124" y="694" type="curve" smooth="yes"/>
      <point x="124" y="623"/>
      <point x="175" y="575"/>
      <point x="250" y="575" type="curve" smooth="yes"/>
      <point x="325" y="575"/>
      <point x="375" y="623"/>
      <point x="375" y="694" type="curve" smooth="yes"/>
      <point x="375" y="764"/>
      <point x="325" y="812"/>
      <point x="250" y="812" type="curve" smooth="yes"/>
    </contour>
    <contour>
      <point x="291" y="763"/>
      <point x="321" y="734"/>
      <point x="321" y="694" type="curve" smooth="yes"/>
      <point x="321" y="654"/>
      <point x="291" y="625"/>
      <point x="250" y="625" type="curve" smooth="yes"/>
      <point x="209" y="625"/>
      <point x="179" y="654"/>
      <point x="179" y="694" type="curve" smooth="yes"/>
      <point x="179" y="734"/>
      <point x="209" y="763"/>
      <point x="250" y="763" type="curve" smooth="yes"/>
    </contour>
  </outline>
</glyph>
<glyph name="commaaccent" format="2">
  <unicode hex="0326"/>
  <anchor x="0" y="0" name="_bottom"/>
  <outline>
    <contour>
      <point x="-54" y="-76" type="line"/>
      <point x="-98" y="-237" type="line"/>
      <point x="-35" y="-237" type="line"/>
      <point x="30" y="-76" type="line"/>
    </contour>
  </outline>
</glyph>
<glyph name="emdash" format="2">
  <advance width="1014"/>
  <unicode hex="2014"/>
  <outline>
    <contour>
      <point x="82" y="299" type="line"/>
      <point x="82" y="224" type="line"/>
      <point x="932" y="224" type="line"/>
      <point x="932" y="299" type="line"/>
    </contour>
  </outline>
</glyph>
<glyph name="daggerdbl" format="2">
  <advance width="513"/>
  <unicode hex="2021"/>
  <outline>
    <contour>
      <point x="217" y="660" type="line"/>
      <point x="217" y="-100" type="line"/>
      <point x="297" y="-100" type="line"/>
      <point x="297" y="660" type="line"/>
    </contour>
    <contour>
      <point x="39" y="450" type="line"/>
      <point x="39" y="381" type="line"/>
      <point x="474" y="381" type="line"/>
      <point x="474" y="450" type="line"/>
    </contour>
    <contour>
      <point x="39" y="179" type="line"/>
      <point x="39" y="110" type="line"/>
      <point x="474" y="110" type="line"/>
      <point x="474" y="179" type="line"/>
    </contour>
  </outline>
</glyph>
<glyph name="bullet" format="2">
  <advance width="430"/>
  <unicode hex="2022"/>
  <outline>
    <contour>
      <point x="143" y="458"/>
      <point x="90" y="407"/>
      <point x="90" y="337" type="curve" smooth="yes"/>
      <point x="90" y="267"/>
      <point x="143" y="216"/>
      <point x="215" y="216" type="curve" smooth="yes"/>
      <point x="288" y="216"/>
      <point x="340" y="267"/>
      <point x="340" y="337" type="curve" smooth="yes"/>
      <point x="340" y="407"/>
      <point x="288" y="458"/>
      <point x="215" y="458" type="curve" smooth="yes"/>
    </contour>
  </outline>
</glyph>
<glyph name="foursuperior" format="2">
  <advance width="358"/>
  <unicode hex="2074"/>
  <anchor x="198" y="527" name="_indexring"/>
  <outline>
    <contour>
      <point x="267" y="482" type="line"/>
      <point x="267" y="730" type="line"/>
      <point x="191" y="730" type="line"/>
      <point x="9" y="469" type="line"/>
      <point x="9" y="432" type="line"/>
      <point x="208" y="432" type="line"/>
      <point x="208" y="333" type="line"/>
      <point x="267" y="333" type="line"/>
      <point x="267" y="432" type="line"/>
      <point x="338" y="432" type="line"/>
      <point x="338" y="482" type="line"/>
    </contour>
    <contour>
      <point x="176" y="618" type="line" smooth="yes"/>
      <point x="187" y="634"/>
      <point x="200" y="657"/>
      <point x="208" y="672" type="curve"/>
      <point x="211" y="672" type="line"/>
      <point x="209" y="647"/>
      <point x="208" y="621"/>
      <point x="208" y="596" type="curve" smooth="yes"/>
      <point x="208" y="482" type="line"/>
      <point x="77" y="482" type="line"/>
    </contour>
  </outline>
</glyph>
<glyph name="equalsuperior" format="2">
  <advance width="382"/>
  <unicode hex="207C"/>
  <outline>
    <contour>
      <point x="329" y="440" type="line"/>
      <point x="329" y="493" type="line"/>
      <point x="53" y="493" type="line"/>
      <point x="53" y="440" type="line"/>
    </contour>
    <contour>
      <point x="329" y="566" type="line"/>
      <point x="329" y="619" type="line"/>
      <point x="53" y="619" type="line"/>
      <point x="53" y="566" type="line"/>
    </contour>
  </outline>
</glyph>
<glyph name="parenleftsuperior" format="2">
  <advance width="226"/>
  <unicode hex="207D"/>
  <outline>
    <contour>
      <point x="111" y="749"/>
      <point x="67" y="649"/>
      <point x="67" y="531" type="curve" smooth="yes"/>
      <point x="67" y="413"/>
      <point x="111" y="313"/>
      <point x="193" y="241" type="curve"/>
      <point x="233" y="276" type="line"/>
      <point x="161" y="348"/>
      <point x="133" y="422"/>
      <point x="133" y="531" type="curve" smooth="yes"/>
      <point x="133" y="640"/>
      <point x="161" y="714"/>
      <point x="233" y="786" type="curve"/>
      <point x="193" y="821" type="line"/>
    </contour>
  </outline>
</glyph>
<glyph name="uni20BD" format="2">
  <advance width="645"/>
  <unicode hex="20BD"/>
  <outline>
    <contour>
      <point x="188" y="660" type="line"/>
      <point x="188" y="587" type="line"/>
      <point x="369" y="587" type="line" smooth="yes"/>
      <point x="473" y="587"/>
      <point x="519" y="543"/>
      <point x="519" y="459" type="curve" smooth="yes"/>
      <point x="519" y="375"/>
      <point x="473" y="331"/>
      <point x="369" y="331" type="curve" smooth="yes"/>
      <point x="53" y="331" type="line"/>
      <point x="53" y="261" type="line"/>
      <point x="381" y="261" type="line" smooth="yes"/>
      <point x="514" y="261"/>
      <point x="603" y="338"/>
      <point x="603" y="459" type="curve" smooth="yes"/>
      <point x="603" y="583"/>
      <point x="514" y="660"/>
      <point x="381" y="660" type="curve" smooth="yes"/>
    </contour>
    <contour>
      <point x="148" y="660" type="line"/>
      <point x="148" y="0" type="line"/>
      <point x="223" y="0" type="line"/>
      <point x="223" y="660" type="line"/>
    </contour>
    <contour>
      <point x="401" y="191" type="line"/>
      <point x="53" y="191" type="line"/>
      <point x="53" y="128" type="line"/>
      <point x="401" y="128" type="line"/>
    </contour>
  </outline>
</glyph>
<glyph name="updownarrow" format="2">
  <advance width="750"/>
  <unicode hex="2195"/>
  <outline>
    <contour>
      <point x="404" y="-50" type="line"/>
      <point x="409" y="-10"/>
      <point x="414" y="38"/>
      <point x="414" y="105" type="curve" smooth="yes"/>
      <point x="414" y="555" type="line" smooth="yes"/>
      <point x="414" y="622"/>
      <point x="409" y="670"/>
      <point x="404" y="710" type="curve"/>
      <point x="374" y="770" type="line"/>
      <point x="344" y="710" type="line"/>
      <point x="339" y="670"/>
      <point x="334" y="622"/>
      <point x="334" y="555" type="curve" smooth="yes"/>
      <point x="334" y="105" type="line" smooth="yes"/>
      <point x="334" y="38"/>
      <point x="339" y="-10"/>
      <point x="344" y="-50" type="curve"/>
      <point x="374" y="-110" type="line"/>
    </contour>
    <contour>
      <point x="261" y="578"/>
      <point x="367" y="691"/>
      <point x="391" y="788" type="curve"/>
      <point x="357" y="788" type="line"/>
      <point x="381" y="691"/>
      <point x="487" y="578"/>
      <point x="664" y="461" type="curve"/>
      <point x="706" y="531" type="line"/>
      <point x="547" y="628"/>
      <point x="458" y="714"/>
      <point x="377" y="826" type="curve"/>
      <point x="371" y="826" type="line"/>
      <point x="290" y="714"/>
      <point x="201" y="628"/>
      <point x="42" y="531" type="curve"/>
      <point x="84" y="461" type="line"/>
    </contour>
    <contour>
      <point x="42" y="129" type="line"/>
      <point x="201" y="32"/>
      <point x="290" y="-54"/>
      <point x="371" y="-166" type="curve"/>
      <point x="377" y="-166" type="line"/>
      <point x="458" y="-54"/>
      <point x="547" y="32"/>
      <point x="706" y="129" type="curve"/>
      <point x="664" y="199" type="line"/>
      <point x="487" y="82"/>
      <point x="381" y="-31"/>
      <point x="357" y="-128" type="curve"/>
      <point x="391" y="-128" type="line"/>
      <point x="367" y="-31"/>
      <point x="261" y="82"/>
      <point x="84" y="199" type="curve"/>
    </contour>
  </outline>
</glyph>
<glyph name="partialdiff" format="2">
  <advance width="620"/>
  <unicode hex="2202"/>
  <outline>
    <contour>
      <point x="210" y="670"/>
      <point x="151" y="644"/>
      <point x="101" y="600" type="curve"/>
      <point x="142" y="541" type="line"/>
      <point x="184" y="583"/>
      <point x="219" y="602"/>
      <point x="280" y="602" type="curve" smooth="yes"/>
      <point x="407" y="602"/>
      <point x="474" y="524"/>
      <point x="474" y="330" type="curve" smooth="yes"/>
      <point x="474" y="155"/>
      <point x="413" y="62"/>
      <point x="292" y="62" type="curve" smooth="yes"/>
      <point x="196" y="62"/>
      <point x="145" y="120"/>
      <point x="145" y="215" type="curve" smooth="yes"/>
      <point x="145" y="308"/>
      <point x="196" y="367"/>
      <point x="287" y="367" type="curve" smooth="yes"/>
      <point x="390" y="367"/>
      <point x="449" y="312"/>
      <point x="471" y="229" type="curve"/>
      <point x="513" y="236" type="line"/>
      <point x="500" y="360"/>
      <point x="406" y="438"/>
      <point x="288" y="438" type="curve" smooth="yes"/>
      <point x="159" y="438"/>
      <point x="65" y="345"/>
      <point x="65" y="214" type="curve" smooth="yes"/>
      <point x="65" y="83"/>
      <point x="153" y="-10"/>
      <point x="292" y="-10" type="curve" smooth="yes"/>
      <point x="458" y="-10"/>
      <point x="548" y="109"/>
      <point x="548" y="330" type="curve" smooth="yes"/>
      <point x="548" y="541"/>
      <point x="472" y="670"/>
      <point x="282" y="670" type="curve" smooth="yes"/>
    </contour>
  </outline>
</glyph>
<glyph name="summation" format="2">
  <advance width="637"/>
  <unicode hex="2211"/>
  <outline>
    <contour>
      <point x="385" y="268" type="line"/>
      <point x="58" y="-53" type="line"/>
      <point x="114" y="-100" type="line"/>
      <point x="485" y="261" type="line"/>
      <point x="485" y="268" type="line"/>
    </contour>
    <contour>
      <point x="58" y="-53" type="line"/>
      <point x="58" y="-128" type="line"/>
      <point x="574" y="-128" type="line"/>
      <point x="574" y="-53" type="line"/>
    </contour>
    <contour>
      <point x="58" y="585" type="line"/>
      <point x="385" y="268" type="line"/>
      <point x="485" y="268" type="line"/>
      <point x="485" y="275" type="line"/>
      <point x="114" y="632" type="line"/>
    </contour>
    <contour>
      <point x="58" y="660" type="line"/>
      <point x="58" y="585" type="line"/>
      <point x="574" y="585" type="line"/>
      <point x="574" y="660" type="line"/>
    </contour>
  </outline>
</glyph>
<glyph name="approxequal" format="2">
  <advance width="604"/>
  <unicode hex="2248"/>
  <outline>
    <contour>
      <point x="134" y="495"/>
      <point x="102" y="479"/>
      <point x="59" y="440" type="curve"/>
      <point x="59" y="367" type="line"/>
      <point x="99" y="405"/>
      <point x="132" y="422"/>
      <point x="191" y="422" type="curve" smooth="yes"/>
      <point x="267" y="422"/>
      <point x="336" y="352"/>
      <point x="416" y="352" type="curve" smooth="yes"/>
      <point x="465" y="352"/>
      <point x="505" y="369"/>
      <point x="545" y="407" type="curve"/>
      <point x="545" y="480" type="line"/>
      <point x="499" y="436"/>
      <point x="461" y="425"/>
      <point x="417" y="425" type="curve" smooth="yes"/>
      <point x="344" y="425"/>
      <point x="276" y="495"/>
      <point x="191" y="495" type="curve" smooth="yes"/>
    </contour>
    <contour>
      <point x="134" y="295"/>
      <point x="102" y="279"/>
      <point x="59" y="240" type="curve"/>
      <point x="59" y="167" type="line"/>
      <point x="99" y="205"/>
      <point x="132" y="222"/>
      <point x="191" y="222" type="curve" smooth="yes"/>
      <point x="267" y="222"/>
      <point x="336" y="152"/>
      <point x="416" y="152" type="curve" smooth="yes"/>
      <point x="465" y="152"/>
      <point x="505" y="169"/>
      <point x="545" y="207" type="curve"/>
      <point x="545" y="280" type="line"/>
      <point x="499" y="236"/>
      <point x="461" y="225"/>
      <point x="417" y="225" type="curve" smooth="yes"/>
      <point x="344" y="225"/>
      <point x="276" y="295"/>
      <point x="191" y="295" type="curve" smooth="yes"/>
    </contour>
  </outline>
</glyph>
<glyph name="heavyquoteleft" format="2">
  <advance width="730"/>
  <unicode hex="275B"/>
  <outline>
    <contour>
      <point x="216" y="665"/>
      <point x="68" y="510"/>
      <point x="68" y="281" type="curve" smooth="yes"/>
      <point x="68" y="101"/>
      <point x="150" y="-10"/>
      <point x="376" y="-10" type="curve" smooth="yes"/>
      <point x="553" y="-10"/>
      <point x="659" y="79"/>
      <point x="659" y="230" type="curve" smooth="yes"/>
      <point x="659" y="381"/>
      <point x="554" y="470"/>
      <point x="377" y="470" type="curve" smooth="yes"/>
      <point x="278" y="470"/>
      <point x="230" y="451"/>
      <point x="178" y="412" type="curve"/>
      <point x="171" y="417" type="line"/>
      <point x="243" y="531"/>
      <point x="362" y="600"/>
      <point x="630" y="600" type="curve"/>
      <point x="583" y="665" type="line"/>
    </contour>
  </outline>
</glyph>
<glyph name="A.swsh" format="2">
  <advance width="905"/>
  <anchor x="575" y="0" name="bottom"/>
  <anchor x="879" y="0" name="ogonek"/>
  <anchor x="575" y="660" name="top"/>
  <outline>
    <contour>
      <point x="275" y="-110"/>
      <point x="334" y="-58"/>
      <point x="371" y="42" type="curve" smooth="yes"/>
      <point x="544" y="495" type="line"/>
      <point x="573" y="584" type="line"/>
      <point x="575" y="584" type="line"/>
      <point x="606" y="492" type="line"/>
      <point x="794" y="0" type="line"/>
      <point x="879" y="0" type="line"/>
      <point x="623" y="660" type="line"/>
      <point x="528" y="660" type="line"/>
      <point x="308" y="95" type="line" smooth="yes"/>
      <point x="266" y="-12"/>
      <point x="240" y="-40"/>
      <point x="172" y="-40" type="curve" smooth="yes"/>
      <point x="107" y="-40"/>
      <point x="70" y="-21"/>
      <point x="58" y="65" type="curve"/>
      <point x="0" y="22" type="line"/>
      <point x="6" y="-60"/>
      <point x="68" y="-110"/>
      <point x="173" y="-110" type="curve" smooth="yes"/>
    </contour>
    <contour>
      <point x="750" y="183" type="line"/>
      <point x="750" y="258" type="line"/>
      <point x="397" y="258" type="line"/>
      <point x="397" y="183" type="line"/>
    </contour>
    <component base="__swash_topleft" xOffset="45"/>
  </outline>
</glyph>
<glyph name="Aogonek_j" format="2">
  <advance width="926"/>
  <anchor x="612" y="0" name="bottomC"/>
  <anchor x="330" y="660" name="top"/>
  <anchor x="634" y="0" name="ogonek"/>
  <anchor x="330" y="0" name="bottom"/>
  <outline>
    <contour>
      <point x="769" y="-215"/>
      <point x="833" y="-176"/>
      <point x="833" y="-51" type="curve" smooth="yes"/>
      <point x="833" y="500" type="line"/>
      <point x="753" y="500" type="line"/>
      <point x="753" y="-43" type="line" smooth="yes"/>
      <point x="753" y="-113"/>
      <point x="738" y="-137"/>
      <point x="700" y="-137" type="curve" smooth="yes"/>
      <point x="678" y="-137"/>
      <point x="663" y="-134"/>
      <point x="648" y="-126" type="curve"/>
      <point x="633" y="-202" type="line"/>
      <point x="650" y="-210"/>
      <point x="672" y="-215"/>
      <point x="701" y="-215" type="curve" smooth="yes"/>
    </contour>
    <contour>
      <point x="561" y="-215"/>
      <point x="577" y="-212"/>
      <point x="596" y="-201" type="curve"/>
      <point x="588" y="-146" type="line"/>
      <point x="576" y="-156"/>
      <point x="565" y="-158"/>
      <point x="552" y="-158" type="curve" smooth="yes"/>
      <point x="514" y="-158"/>
      <point x="488" y="-138"/>
      <point x="488" y="-105" type="curve" smooth="yes"/>
      <point x="488" y="-55"/>
      <point x="536" y="-30"/>
      <point x="634" y="0" type="curve"/>
      <point x="588" y="26" type="line"/>
      <point x="499" y="4"/>
      <point x="423" y="-39"/>
      <point x="423" y="-119" type="curve" smooth="yes"/>
      <point x="423" y="-177"/>
      <point x="470" y="-215"/>
      <point x="532" y="-215" type="curve" smooth="yes"/>
    </contour>
    <contour>
      <point x="826" y="596"/>
      <point x="853" y="623"/>
      <point x="853" y="656" type="curve" smooth="yes"/>
      <point x="853" y="689"/>
      <point x="826" y="716"/>
      <point x="793" y="716" type="curve" smooth="yes"/>
      <point x="760" y="716"/>
      <point x="733" y="689"/>
      <point x="733" y="656" type="curve" smooth="yes"/>
      <point x="733" y="623"/>
      <point x="760" y="596"/>
      <point x="793" y="596" type="curve" smooth="yes"/>
    </contour>
    <component base="A"/>
  </outline>
</glyph>
<glyph name="Hsuperior" format="2">
  <advance width="460"/>
  <outline>
    <contour>
      <point x="333" y="730" type="line"/>
      <point x="333" y="333" type="line"/>
      <point x="405" y="333" type="line"/>
      <point x="405" y="730" type="line"/>
    </contour>
    <contour>
      <point x="55" y="730" type="line"/>
      <point x="55" y="333" type="line"/>
      <point x="127" y="333" type="line"/>
      <point x="127" y="730" type="line"/>
    </contour>
    <contour>
      <point x="91" y="563" type="line"/>
      <point x="91" y="505" type="line"/>
      <point x="371" y="505" type="line"/>
      <point x="371" y="563" type="line"/>
    </contour>
  </outline>
</glyph>
<glyph name="L.swsh" format="2">
  <advance width="637"/>
  <anchor x="377" y="0" name="bottom"/>
  <anchor x="350" y="0" name="bottomC"/>
  <anchor x="464" y="342" name="center"/>
  <anchor x="418" y="0" name="ogonek"/>
  <anchor x="148" y="660" name="top"/>
  <anchor x="300" y="700" name="topright"/>
  <outline>
    <contour>
      <point x="418" y="0" type="line" smooth="yes"/>
      <point x="545" y="0"/>
      <point x="627" y="57"/>
      <point x="627" y="179" type="curve" smooth="yes"/>
      <point x="627" y="288"/>
      <point x="553" y="345"/>
      <point x="468" y="348" type="curve"/>
      <point x="437" y="284" type="line"/>
      <point x="501" y="283"/>
      <point x="547" y="251"/>
      <point x="547" y="180" type="curve" smooth="yes"/>
      <point x="547" y="99"/>
      <point x="489" y="75"/>
      <point x="401" y="75" type="curve" smooth="yes"/>
      <point x="274" y="75" type="line"/>
      <point x="274" y="0" type="line"/>
    </contour>
    <contour>
      <point x="346" y="0" type="line"/>
      <point x="346" y="75" type="line"/>
      <point x="150" y="75" type="line"/>
      <point x="150" y="0" type="line"/>
    </contour>
    <contour>
      <point x="188" y="0" type="line"/>
      <point x="188" y="660" type="line"/>
      <point x="108" y="660" type="line"/>
      <point x="108" y="0" type="line"/>
    </contour>
  </outline>
</glyph>
<glyph name="M.swsh.001" format="2">
  <advance width="1073"/>
  <anchor x="646" y="0" name="bottom"/>
  <anchor x="672" y="0" name="bottomC"/>
  <anchor x="965" y="0" name="ogonek"/>
  <anchor x="646" y="660" name="top"/>
  <outline>
    <contour>
      <point x="200" y="366" type="line"/>
      <point x="136" y="377"/>
      <point x="90" y="419"/>
      <point x="90" y="480" type="curve" smooth="yes"/>
      <point x="90" y="558"/>
      <point x="148" y="595"/>
      <point x="236" y="595" type="curve" smooth="yes"/>
      <point x="433" y="595" type="line"/>
      <point x="433" y="660" type="line"/>
      <point x="219" y="660" type="line" smooth="yes"/>
      <point x="92" y="660"/>
      <point x="10" y="593"/>
      <point x="10" y="481" type="curve" smooth="yes"/>
      <point x="10" y="382"/>
      <point x="84" y="315"/>
      <point x="169" y="302" type="curve"/>
    </contour>
    <component base="M" xOffset="219"/>
  </outline>
</glyph>
<glyph name="R.swsh.001" format="2">
  <advance width="685"/>
  <anchor x="365" y="0" name="bottom"/>
  <anchor x="657" y="-65" name="bottomC"/>
  <anchor x="642" y="-86" name="ogonek"/>
  <anchor x="322" y="660" name="top"/>
  <outline>
    <contour>
      <point x="358" y="274" type="line" smooth="yes"/>
      <point x="492" y="274"/>
      <point x="581" y="348"/>
      <point x="581" y="467" type="curve" smooth="yes"/>
      <point x="581" y="586"/>
      <point x="492" y="660"/>
      <point x="358" y="660" type="curve" smooth="yes"/>
      <point x="148" y="660" type="line"/>
      <point x="148" y="585" type="line"/>
      <point x="357" y="585" type="line" smooth="yes"/>
      <point x="451" y="585"/>
      <point x="497" y="546"/>
      <point x="497" y="467" type="curve" smooth="yes"/>
      <point x="497" y="388"/>
      <point x="451" y="349"/>
      <point x="357" y="349" type="curve" smooth="yes"/>
      <point x="148" y="349" type="line"/>
      <point x="148" y="274" type="line"/>
    </contour>
    <contour>
      <point x="188" y="0" type="line"/>
      <point x="188" y="660" type="line"/>
      <point x="108" y="660" type="line"/>
      <point x="108" y="0" type="line"/>
    </contour>
    <contour>
      <point x="685" y="-31" type="line"/>
      <point x="636" y="-14"/>
      <point x="565" y="48"/>
      <point x="535" y="90" type="curve" smooth="yes"/>
      <point x="361" y="333" type="line"/>
      <point x="304" y="289" type="line"/>
      <point x="459" y="68" type="line" smooth="yes"/>
      <point x="498" y="12"/>
      <point x="528" y="-29"/>
      <point x="642" y="-86" type="curve"/>
    </contour>
  </outline>
</glyph>
<glyph name="__swash_topleft" format="2">
  <advance width="507"/>
  <outline>
    <contour>
      <point x="284" y="366" type="line"/>
      <point x="220" y="377"/>
      <point x="174" y="419"/>
      <point x="174" y="480" type="curve" smooth="yes"/>
      <point x="174" y="558"/>
      <point x="232" y="595"/>
      <point x="320" y="595" type="curve" smooth="yes"/>
      <point x="517" y="595" type="line"/>
      <point x="517" y="660" type="line"/>
      <point x="303" y="660" type="line" smooth="yes"/>
      <point x="176" y="660"/>
      <point x="94" y="593"/>
      <point x="94" y="481" type="curve" smooth="yes"/>
      <point x="94" y="382"/>
      <point x="168" y="315"/>
      <point x="253" y="302" type="curve"/>
    </contour>
  </outline>
</glyph>
<glyph name="acutecmb.cap" format="2">
  <anchor x="0" y="660" name="_top"/>
  <outline>
    <contour>
      <point x="-43" y="743" type="line"/>
      <point x="21" y="743" type="line"/>
      <point x="107" y="902" type="line"/>
      <point x="23" y="902" type="line"/>
    </contour>
  </outline>
</glyph>
<glyph name="aogonek_j" format="2">
  <advance width="832"/>
  <outline>
    <contour>
      <point x="171" y="510"/>
      <point x="92" y="462"/>
      <point x="66" y="388" type="curve"/>
      <point x="125" y="345" type="line"/>
      <point x="152" y="408"/>
      <point x="202" y="440"/>
      <point x="268" y="440" type="curve" smooth="yes"/>
      <point x="343" y="440"/>
      <point x="385" y="396"/>
      <point x="385" y="330" type="curve" smooth="yes"/>
      <point x="385" y="128" type="line"/>
      <point x="385" y="112" type="line" smooth="yes"/>
      <point x="385" y="16"/>
      <point x="449" y="-10"/>
      <point x="488" y="-10" type="curve" smooth="yes"/>
      <point x="503" y="-10"/>
      <point x="524" y="-5"/>
      <point x="538" y="0" type="curve"/>
      <point x="543" y="63" type="line"/>
      <point x="531" y="60"/>
      <point x="516" y="58"/>
      <point x="503" y="58" type="curve" smooth="yes"/>
      <point x="475" y="58"/>
      <point x="465" y="70"/>
      <point x="465" y="94" type="curve" smooth="yes"/>
      <point x="465" y="340" type="line" smooth="yes"/>
      <point x="465" y="456"/>
      <point x="382" y="510"/>
      <point x="268" y="510" type="curve" smooth="yes"/>
    </contour>
    <contour>
      <point x="252" y="280" type="line" smooth="yes"/>
      <point x="123" y="258"/>
      <point x="57" y="199"/>
      <point x="57" y="124" type="curve" smooth="yes"/>
      <point x="57" y="34"/>
      <point x="133" y="-10"/>
      <point x="227" y="-10" type="curve" smooth="yes"/>
      <point x="315" y="-10"/>
      <point x="407" y="42"/>
      <point x="407" y="125" type="curve"/>
      <point x="385" y="168" type="line"/>
      <point x="385" y="102"/>
      <point x="311" y="60"/>
      <point x="231" y="60" type="curve" smooth="yes"/>
      <point x="174" y="60"/>
      <point x="140" y="82"/>
      <point x="140" y="124" type="curve" smooth="yes"/>
      <point x="140" y="171"/>
      <point x="185" y="198"/>
      <point x="273" y="216" type="curve" smooth="yes"/>
      <point x="431" y="245" type="line"/>
      <point x="420" y="308" type="line"/>
    </contour>
    <contour>
      <point x="403" y="-6"/>
      <point x="329" y="-39"/>
      <point x="329" y="-119" type="curve" smooth="yes"/>
      <point x="329" y="-177"/>
      <point x="376" y="-215"/>
      <point x="438" y="-215" type="curve" smooth="yes"/>
      <point x="467" y="-215"/>
      <point x="483" y="-212"/>
      <point x="502" y="-201" type="curve"/>
      <point x="498.446" y="-149.017" type="line"/>
      <point x="485.239" y="-156.503"/>
      <point x="472.032" y="-158"/>
      <point x="458" y="-158" type="curve" smooth="yes"/>
      <point x="420" y="-158"/>
      <point x="394" y="-138"/>
      <point x="394" y="-105" type="curve" smooth="yes"/>
      <point x="394" y="-55"/>
      <point x="440" y="-30"/>
      <point x="538" y="0" type="curve"/>
      <point x="492" y="26" type="line"/>
    </contour>
    <contour>
      <point x="659" y="500" type="line"/>
      <point x="659" y="-43" type="line" smooth="yes"/>
      <point x="659" y="-113"/>
      <point x="644" y="-137"/>
      <point x="606" y="-137" type="curve" smooth="yes"/>
      <point x="584" y="-137"/>
      <point x="569" y="-134"/>
      <point x="554" y="-126" type="curve"/>
      <point x="539" y="-202" type="line"/>
      <point x="556" y="-210"/>
      <point x="578" y="-215"/>
      <point x="607" y="-215" type="curve" smooth="yes"/>
      <point x="675" y="-215"/>
      <point x="739" y="-176"/>
      <point x="739" y="-51" type="curve" smooth="yes"/>
      <point x="739" y="500" type="line"/>
    </contour>
    <contour>
      <point x="666" y="716"/>
      <point x="639" y="689"/>
      <point x="639" y="656" type="curve" smooth="yes"/>
      <point x="639" y="623"/>
      <point x="666" y="596"/>
      <point x="699" y="596" type="curve" smooth="yes"/>
      <point x="732" y="596"/>
      <point x="759" y="623"/>
      <point x="759" y="656" type="curve" smooth="yes"/>
      <point x="759" y="689"/>
      <point x="732" y="716"/>
      <point x="699" y="716" type="curve" smooth="yes"/>
    </contour>
  </outline>
</glyph>
<glyph name="aring.sc" format="2">
  <advance width="595"/>
  <anchor x="297" y="0" name="bottom"/>
  <anchor x="550" y="0" name="bottomC"/>
  <anchor x="572" y="0" name="ogonek"/>
  <anchor x="298" y="742" name="top"/>
  <outline>
    <contour>
      <point x="107" y="0" type="line"/>
      <point x="272" y="415" type="line"/>
      <point x="297" y="489" type="line"/>
      <point x="298" y="489" type="line"/>
      <point x="323" y="415" type="line"/>
      <point x="488" y="0" type="line"/>
      <point x="572" y="0" type="line"/>
      <point x="345" y="560" type="line"/>
      <point x="250" y="560" type="line"/>
      <point x="23" y="0" type="line"/>
    </contour>
    <contour>
      <point x="456" y="153" type="line"/>
      <point x="456" y="222" type="line"/>
      <point x="139" y="222" type="line"/>
      <point x="139" y="153" type="line"/>
    </contour>
    <contour>
      <point x="223" y="752"/>
      <point x="172" y="704"/>
      <point x="172" y="634" type="curve" smooth="yes"/>
      <point x="172" y="563"/>
      <point x="223" y="515"/>
      <point x="298" y="515" type="curve" smooth="yes"/>
      <point x="373" y="515"/>
      <point x="423" y="563"/>
      <point x="423" y="634" type="curve" smooth="yes"/>
      <point x="423" y="704"/>
      <point x="373" y="752"/>
      <point x="298" y="752" type="curve" smooth="yes"/>
    </contour>
    <contour>
      <point x="338" y="703"/>
      <point x="368" y="674"/>
      <point x="368" y="634" type="curve" smooth="yes"/>
      <point x="368" y="594"/>
      <point x="338" y="565"/>
      <point x="297" y="565" type="curve" smooth="yes"/>
      <point x="256" y="565"/>
      <point x="226" y="594"/>
      <point x="226" y="634" type="curve" smooth="yes"/>
      <point x="226" y="674"/>
      <point x="256" y="703"/>
      <point x="297" y="703" type="curve" smooth="yes"/>
    </contour>
  </outline>
</glyph>
<glyph name="bar.case" format="2">
  <advance width="243"/>
  <outline>
    <contour>
      <point x="87" y="752" type="line"/>
      <point x="87" y="-97" type="line"/>
      <point x="156" y="-97" type="line"/>
      <point x="156" y="752" type="line"/>
    </contour>
  </outline>
</glyph>
<glyph name="braceleft.case" format="2">
  <advance width="351"/>
  <outline>
    <contour>
      <point x="182" y="773"/>
      <point x="140" y="728"/>
      <point x="140" y="649" type="curve" smooth="yes"/>
      <point x="140" y="467" type="line" smooth="yes"/>
      <point x="140" y="392"/>
      <point x="109" y="363"/>
      <point x="28" y="363" type="curve"/>
      <point x="28" y="321" type="line"/>
      <point x="148" y="321"/>
      <point x="215" y="367"/>
      <point x="215" y="460" type="curve" smooth="yes"/>
      <point x="215" y="655" type="line" smooth="yes"/>
      <point x="215" y="691"/>
      <point x="242" y="708"/>
      <point x="310" y="708" type="curve"/>
      <point x="297" y="773" type="line"/>
    </contour>
    <contour>
      <point x="28" y="293" type="line"/>
      <point x="109" y="293"/>
      <point x="140" y="264"/>
      <point x="140" y="189" type="curve" smooth="yes"/>
      <point x="140" y="6" type="line" smooth="yes"/>
      <point x="140" y="-73"/>
      <point x="182" y="-118"/>
      <point x="297" y="-118" type="curve"/>
      <point x="310" y="-53" type="line"/>
      <point x="242" y="-53"/>
      <point x="215" y="-36"/>
      <point x="215" y="0" type="curve" smooth="yes"/>
      <point x="215" y="196" type="line" smooth="yes"/>
      <point x="215" y="289"/>
      <point x="148" y="335"/>
      <point x="28" y="335" type="curve"/>
    </contour>
  </outline>
</glyph>
<glyph name="c_t" format="2">
  <advance width="907"/>
  <outline>
    <contour>
      <point x="410" y="-10"/>
      <point x="482" y="46"/>
      <point x="514" y="138" type="curve"/>
      <point x="442" y="163" type="line"/>
      <point x="422" y="97"/>
      <point x="375" y="60"/>
      <point x="302" y="60" type="curve" smooth="yes"/>
      <point x="202" y="60"/>
      <point x="142" y="131"/>
      <point x="142" y="250" type="curve" smooth="yes"/>
      <point x="142" y="369"/>
      <point x="202" y="440"/>
      <point x="302" y="440" type="curve" smooth="yes"/>
      <point x="367" y="440"/>
      <point x="412" y="404"/>
      <point x="433" y="341" type="curve"/>
      <point x="509" y="377" type="line"/>
      <point x="484" y="422"/>
      <point x="454" y="490"/>
      <point x="454" y="557" type="curve" smooth="yes"/>
      <point x="454" y="637"/>
      <point x="487" y="662"/>
      <point x="536" y="662" type="curve" smooth="yes"/>
      <point x="586" y="662"/>
      <point x="619" y="627"/>
      <point x="619" y="542" type="curve" smooth="yes"/>
      <point x="619" y="124" type="line" smooth="yes"/>
      <point x="619" y="27"/>
      <point x="684" y="-10"/>
      <point x="758" y="-10" type="curve" smooth="yes"/>
      <point x="813" y="-10"/>
      <point x="856" y="7"/>
      <point x="887" y="35" type="curve"/>
      <point x="859" y="102" type="line"/>
      <point x="836" y="79"/>
      <point x="810" y="65"/>
      <point x="774" y="65" type="curve" smooth="yes"/>
      <point x="730" y="65"/>
      <point x="699" y="89"/>
      <point x="699" y="138" type="curve" smooth="yes"/>
      <point x="699" y="573" type="line" smooth="yes"/>
      <point x="699" y="684"/>
      <point x="626" y="731"/>
      <point x="541" y="731" type="curve" smooth="yes"/>
      <point x="457" y="731"/>
      <point x="382" y="686"/>
      <point x="382" y="567" type="curve" smooth="yes"/>
      <point x="382" y="512"/>
      <point x="397" y="478"/>
      <point x="419" y="445" type="curve"/>
      <point x="434" y="460" type="line"/>
      <point x="403" y="495"/>
      <point x="359" y="510"/>
      <point x="304" y="510" type="curve" smooth="yes"/>
      <point x="153" y="510"/>
      <point x="62" y="412"/>
      <point x="62" y="250" type="curve" smooth="yes"/>
      <point x="62" y="88"/>
      <point x="153" y="-10"/>
      <point x="304" y="-10" type="curve" smooth="yes"/>
    </contour>
    <contour>
      <point x="884" y="431" type="line"/>
      <point x="884" y="500" type="line"/>
      <point x="639" y="500" type="line"/>
      <point x="639" y="431" type="line"/>
    </contour>
  </outline>
</glyph>
<glyph name="daggersuperior" format="2">
  <advance width="414"/>
  <outline>
    <contour>
      <point x="173" y="730" type="line"/>
      <point x="173" y="244" type="line"/>
      <point x="241" y="244" type="line"/>
      <point x="241" y="730" type="line"/>
    </contour>
    <contour>
      <point x="29" y="595" type="line"/>
      <point x="29" y="536" type="line"/>
      <point x="385" y="536" type="line"/>
      <point x="385" y="595" type="line"/>
    </contour>
  </outline>
</glyph>
<glyph name="dollar.tf" format="2">
  <advance width="604"/>
  <outline>
    <contour>
      <point x="163" y="660"/>
      <point x="74" y="575"/>
      <point x="74" y="469" type="curve" smooth="yes"/>
      <point x="74" y="235"/>
      <point x="481" y="354"/>
      <point x="481" y="177" type="curve" smooth="yes"/>
      <point x="481" y="99"/>
      <point x="417" y="66"/>
      <point x="318" y="66" type="curve" smooth="yes"/>
      <point x="228" y="66"/>
      <point x="139" y="123"/>
      <point x="122" y="209" type="curve"/>
      <point x="48" y="171" type="line"/>
      <point x="86" y="60"/>
      <point x="181" y="0"/>
      <point x="316" y="0" type="curve" smooth="yes"/>
      <point x="459" y="0"/>
      <point x="556" y="70"/>
      <point x="556" y="183" type="curve" smooth="yes"/>
      <point x="556" y="421"/>
      <point x="150" y="303"/>
      <point x="150" y="475" type="curve" smooth="yes"/>
      <point x="150" y="548"/>
      <point x="204" y="592"/>
      <point x="311" y="592" type="curve" smooth="yes"/>
      <point x="407" y="592"/>
      <point x="451" y="558"/>
      <point x="490" y="469" type="curve"/>
      <point x="555" y="520" type="line"/>
      <point x="503" y="615"/>
      <point x="436" y="660"/>
      <point x="310" y="660" type="curve" smooth="yes"/>
    </contour>
    <contour>
      <point x="280" y="760" type="line"/>
      <point x="280" y="-100" type="line"/>
      <point x="349" y="-100" type="line"/>
      <point x="349" y="760" type="line"/>
    </contour>
  </outline>
</glyph>
<glyph name="eight.tf" format="2">
  <advance width="604"/>
  <outline>
    <contour>
      <point x="179" y="669"/>
      <point x="98" y="603"/>
      <point x="98" y="496" type="curve" smooth="yes"/>
      <point x="98" y="427"/>
      <point x="135" y="373"/>
      <point x="190" y="348" type="curve"/>
      <point x="190" y="347" type="line"/>
      <point x="116" y="319"/>
      <point x="69" y="259"/>
      <point x="69" y="178" type="curve" smooth="yes"/>
      <point x="69" y="63"/>
      <point x="162" y="-10"/>
      <point x="302" y="-10" type="curve" smooth="yes"/>
      <point x="443" y="-10"/>
      <point x="535" y="63"/>
      <point x="535" y="178" type="curve" smooth="yes"/>
      <point x="535" y="261"/>
      <point x="487" y="319"/>
      <point x="415" y="347" type="curve"/>
      <point x="415" y="348" type="line"/>
      <point x="470" y="374"/>
      <point x="506" y="428"/>
      <point x="506" y="496" type="curve" smooth="yes"/>
      <point x="506" y="603"/>
      <point x="425" y="669"/>
      <point x="302" y="669" type="curve" smooth="yes"/>
    </contour>
    <contour>
      <point x="376" y="594"/>
      <point x="423" y="555"/>
      <point x="423" y="488" type="curve" smooth="yes"/>
      <point x="423" y="423"/>
      <point x="374" y="383"/>
      <point x="302" y="383" type="curve" smooth="yes"/>
      <point x="230" y="383"/>
      <point x="181" y="423"/>
      <point x="181" y="488" type="curve" smooth="yes"/>
      <point x="181" y="555"/>
      <point x="228" y="594"/>
      <point x="302" y="594" type="curve" smooth="yes"/>
    </contour>
    <contour>
      <point x="210" y="65"/>
      <point x="152" y="111"/>
      <point x="152" y="186" type="curve" smooth="yes"/>
      <point x="152" y="262"/>
      <point x="212" y="308"/>
      <point x="302" y="308" type="curve" smooth="yes"/>
      <point x="393" y="308"/>
      <point x="452" y="262"/>
      <point x="452" y="186" type="curve" smooth="yes"/>
      <point x="452" y="111"/>
      <point x="395" y="65"/>
      <point x="302" y="65" type="curve" smooth="yes"/>
    </contour>
  </outline>
</glyph>
<glyph name="endashsuperior" format="2">
  <advance width="434"/>
  <outline>
    <contour>
      <point x="54" y="554" type="line"/>
      <point x="54" y="505" type="line"/>
      <point x="380" y="505" type="line"/>
      <point x="380" y="554" type="line"/>
    </contour>
  </outline>
</glyph>
<glyph name="f.sc" format="2">
  <advance width="549"/>
  <anchor x="134" y="0" name="bottom"/>
  <anchor x="154" y="0" name="bottomC"/>
  <anchor x="174" y="0" name="ogonek"/>
  <anchor x="304" y="560" name="top"/>
  <outline>
    <contour>
      <point x="94" y="560" type="line"/>
      <point x="94" y="0" type="line"/>
      <point x="174" y="0" type="line"/>
      <point x="174" y="560" type="line"/>
    </contour>
    <contour>
      <point x="135" y="318" type="line"/>
      <point x="135" y="249" type="line"/>
      <point x="440" y="249" type="line"/>
      <point x="440" y="318" type="line"/>
    </contour>
    <contour>
      <point x="135" y="560" type="line"/>
      <point x="135" y="491" type="line"/>
      <point x="514" y="491" type="line"/>
      <point x="514" y="560" type="line"/>
    </contour>
  </outline>
</glyph>
<glyph name="florin.tf" format="2">
  <advance width="604"/>
  <outline>
    <contour>
      <point x="379" y="735"/>
      <point x="324" y="684"/>
      <point x="306" y="584" type="curve" smooth="yes"/>
      <point x="206" y="31" type="line" smooth="yes"/>
      <point x="196" y="-27"/>
      <point x="166" y="-55"/>
      <point x="115" y="-55" type="curve" smooth="yes"/>
      <point x="84" y="-55"/>
      <point x="60" y="-48"/>
      <point x="37" y="-32" type="curve"/>
      <point x="24" y="-104" type="line"/>
      <point x="57" y="-123"/>
      <point x="79" y="-128"/>
      <point x="122" y="-128" type="curve" smooth="yes"/>
      <point x="213" y="-128"/>
      <point x="269" y="-76"/>
      <point x="286" y="23" type="curve" smooth="yes"/>
      <point x="385" y="576" type="line" smooth="yes"/>
      <point x="395" y="634"/>
      <point x="425" y="662"/>
      <point x="477" y="662" type="curve" smooth="yes"/>
      <point x="507" y="662"/>
      <point x="530" y="655"/>
      <point x="555" y="639" type="curve"/>
      <point x="566" y="711" type="line"/>
      <point x="534" y="730"/>
      <point x="512" y="735"/>
      <point x="469" y="735" type="curve" smooth="yes"/>
    </contour>
    <contour>
      <point x="103" y="400" type="line"/>
      <point x="103" y="331" type="line"/>
      <point x="528" y="331" type="line"/>
      <point x="528" y="400" type="line"/>
    </contour>
  </outline>
</glyph>
<glyph name="four.tf" format="2">
  <advance width="604"/>
  <outline>
    <contour>
      <point x="440" y="0" type="line"/>
      <point x="440" y="173" type="line"/>
      <point x="563" y="173" type="line"/>
      <point x="563" y="242" type="line"/>
      <point x="440" y="242" type="line"/>
      <point x="440" y="660" type="line"/>
      <point x="336" y="660" type="line"/>
      <point x="44" y="232" type="line"/>
      <point x="44" y="173" type="line"/>
      <point x="360" y="173" type="line"/>
      <point x="360" y="0" type="line"/>
    </contour>
    <contour>
      <point x="300" y="486" type="line" smooth="yes"/>
      <point x="322" y="517"/>
      <point x="345" y="553"/>
      <point x="362" y="590" type="curve"/>
      <point x="364" y="590" type="line"/>
      <point x="361" y="544"/>
      <point x="360" y="500"/>
      <point x="360" y="457" type="curve" smooth="yes"/>
      <point x="360" y="242" type="line"/>
      <point x="127" y="242" type="line"/>
    </contour>
  </outline>
</glyph>
<glyph name="g.ss01_j.liga" format="2">
  <advance width="873"/>
  <anchor x="287" y="500" name="top"/>
  <outline>
    <contour>
      <point x="471" y="500" type="line"/>
      <point x="456" y="383" type="line"/>
      <point x="456" y="362" type="line"/>
      <point x="456" y="21" type="line" smooth="yes"/>
      <point x="456" y="-77"/>
      <point x="389" y="-145"/>
      <point x="295" y="-145" type="curve" smooth="yes"/>
      <point x="210" y="-145"/>
      <point x="166" y="-116"/>
      <point x="154" y="-59" type="curve"/>
      <point x="78" y="-92" type="line"/>
      <point x="96" y="-177"/>
      <point x="181" y="-215"/>
      <point x="283" y="-215" type="curve" smooth="yes"/>
      <point x="450" y="-215"/>
      <point x="537" y="-132"/>
      <point x="537" y="40" type="curve" smooth="yes"/>
      <point x="537" y="383" type="line"/>
      <point x="537" y="500" type="line"/>
    </contour>
    <contour>
      <point x="151" y="510"/>
      <point x="62" y="415"/>
      <point x="62" y="255" type="curve" smooth="yes"/>
      <point x="62" y="95"/>
      <point x="151" y="0"/>
      <point x="290" y="0" type="curve" smooth="yes"/>
      <point x="407" y="0"/>
      <point x="485" y="77"/>
      <point x="485" y="170" type="curve"/>
      <point x="456" y="249" type="line"/>
      <point x="456" y="139"/>
      <point x="394" y="70"/>
      <point x="299" y="70" type="curve" smooth="yes"/>
      <point x="201" y="70"/>
      <point x="142" y="142"/>
      <point x="142" y="255" type="curve" smooth="yes"/>
      <point x="142" y="368"/>
      <point x="201" y="440"/>
      <point x="299" y="440" type="curve" smooth="yes"/>
      <point x="394" y="440"/>
      <point x="456" y="371"/>
      <point x="456" y="261" type="curve"/>
      <point x="485" y="340" type="line"/>
      <point x="485" y="434"/>
      <point x="407" y="510"/>
      <point x="290" y="510" type="curve" smooth="yes"/>
    </contour>
    <contour>
      <point x="723" y="500" type="line"/>
      <point x="723" y="-43" type="line" smooth="yes"/>
      <point x="723" y="-113"/>
      <point x="693" y="-137"/>
      <point x="650" y="-137" type="curve" smooth="yes"/>
      <point x="615" y="-137"/>
      <point x="587" y="-123"/>
      <point x="568" y="-106" type="curve"/>
      <point x="551" y="-182" type="line"/>
      <point x="574" y="-201"/>
      <point x="610" y="-215"/>
      <point x="651" y="-215" type="curve" smooth="yes"/>
      <point x="719" y="-215"/>
      <point x="803" y="-176"/>
      <point x="803" y="-51" type="curve" smooth="yes"/>
      <point x="803" y="500" type="line"/>
    </contour>
    <contour>
      <point x="730" y="716"/>
      <point x="703" y="689"/>
      <point x="703" y="656" type="curve" smooth="yes"/>
      <point x="703" y="623"/>
      <point x="730" y="596"/>
      <point x="763" y="596" type="curve" smooth="yes"/>
      <point x="796" y="596"/>
      <point x="823" y="623"/>
      <point x="823" y="656" type="curve" smooth="yes"/>
      <point x="823" y="689"/>
      <point x="796" y="716"/>
      <point x="763" y="716" type="curve" smooth="yes"/>
    </contour>
  </outline>
</glyph>
<glyph name="gbase" format="2">
  <advance width="533"/>
  <outline>
    <contour>
      <point x="121" y="213"/>
      <point x="66" y="174"/>
      <point x="66" y="110" type="curve" smooth="yes"/>
      <point x="66" y="35"/>
      <point x="155" y="-5"/>
      <point x="222" y="-5" type="curve" smooth="yes"/>
      <point x="352" y="-5" type="line" smooth="yes"/>
      <point x="431" y="-5"/>
      <point x="457" y="-28"/>
      <point x="457" y="-64" type="curve" smooth="yes"/>
      <point x="457" y="-108"/>
      <point x="402" y="-148"/>
      <point x="290" y="-148" type="curve" smooth="yes"/>
      <point x="173" y="-148"/>
      <point x="118" y="-119"/>
      <point x="118" y="-70" type="curve" smooth="yes"/>
      <point x="118" y="-31"/>
      <point x="155" y="-5"/>
      <point x="222" y="-5" type="curve"/>
      <point x="198" y="34" type="line"/>
      <point x="105" y="34"/>
      <point x="45" y="-12"/>
      <point x="45" y="-83" type="curve" smooth="yes"/>
      <point x="45" y="-158"/>
      <point x="116" y="-215"/>
      <point x="281" y="-215" type="curve" smooth="yes"/>
      <point x="422" y="-215"/>
      <point x="529" y="-154"/>
      <point x="529" y="-55" type="curve" smooth="yes"/>
      <point x="529" y="17"/>
      <point x="471" y="64"/>
      <point x="371" y="64" type="curve" smooth="yes"/>
      <point x="238" y="64" type="line" smooth="yes"/>
      <point x="169" y="64"/>
      <point x="141" y="85"/>
      <point x="141" y="121" type="curve" smooth="yes"/>
      <point x="141" y="157"/>
      <point x="169" y="181"/>
      <point x="238" y="184" type="curve"/>
      <point x="194" y="217" type="line"/>
    </contour>
    <contour>
      <point x="155" y="510"/>
      <point x="73" y="443"/>
      <point x="73" y="341" type="curve" smooth="yes"/>
      <point x="73" y="239"/>
      <point x="155" y="172"/>
      <point x="281" y="172" type="curve" smooth="yes"/>
      <point x="407" y="172"/>
      <point x="489" y="239"/>
      <point x="489" y="341" type="curve" smooth="yes"/>
      <point x="489" y="443"/>
      <point x="407" y="510"/>
      <point x="281" y="510" type="curve" smooth="yes"/>
    </contour>
    <contour>
      <point x="361" y="443"/>
      <point x="408" y="405"/>
      <point x="408" y="341" type="curve" smooth="yes"/>
      <point x="408" y="277"/>
      <point x="361" y="239"/>
      <point x="281" y="239" type="curve" smooth="yes"/>
      <point x="201" y="239"/>
      <point x="154" y="277"/>
      <point x="154" y="341" type="curve" smooth="yes"/>
      <point x="154" y="405"/>
      <point x="201" y="443"/>
      <point x="281" y="443" type="curve" smooth="yes"/>
    </contour>
  </outline>
</glyph>
<glyph name="h.sc" format="2">
  <advance width="661"/>
  <anchor x="331" y="0" name="bottom"/>
  <anchor x="527" y="0" name="bottomC"/>
  <anchor x="567" y="0" name="ogonek"/>
  <anchor x="331" y="560" name="top"/>
  <outline>
    <contour>
      <point x="487" y="560" type="line"/>
      <point x="487" y="0" type="line"/>
      <point x="567" y="0" type="line"/>
      <point x="567" y="560" type="line"/>
    </contour>
    <contour>
      <point x="94" y="560" type="line"/>
      <point x="94" y="0" type="line"/>
      <point x="174" y="0" type="line"/>
      <point x="174" y="560" type="line"/>
    </contour>
    <contour>
      <point x="135" y="318" type="line"/>
      <point x="135" y="249" type="line"/>
      <point x="527" y="249" type="line"/>
      <point x="527" y="318" type="line"/>
    </contour>
  </outline>
</glyph>
<glyph name="idieresis.sc" format="2">
  <advance width="268"/>
  <anchor x="134" y="0" name="bottomC"/>
  <anchor x="134" y="560" name="top"/>
  <anchor x="174" y="0" name="ogonek"/>
  <anchor x="134" y="0" name="bottom"/>
  <outline>
    <contour>
      <point x="19" y="756"/>
      <point x="-4" y="733"/>
      <point x="-4" y="699" type="curve" smooth="yes"/>
      <point x="-4" y="665"/>
      <point x="19" y="642"/>
      <point x="53" y="642" type="curve" smooth="yes"/>
      <point x="87" y="642"/>
      <point x="110" y="665"/>
      <point x="110" y="699" type="curve" smooth="yes"/>
      <point x="110" y="733"/>
      <point x="87" y="756"/>
      <point x="53" y="756" type="curve" smooth="yes"/>
    </contour>
    <contour>
      <point x="181" y="756"/>
      <point x="158" y="733"/>
      <point x="158" y="699" type="curve" smooth="yes"/>
      <point x="158" y="665"/>
      <point x="181" y="642"/>
      <point x="215" y="642" type="curve" smooth="yes"/>
      <point x="249" y="642"/>
      <point x="272" y="665"/>
      <point x="272" y="699" type="curve" smooth="yes"/>
      <point x="272" y="733"/>
      <point x="249" y="756"/>
      <point x="215" y="756" type="curve" smooth="yes"/>
    </contour>
    <component base="i.sc"/>
  </outline>
</glyph>
<glyph name="j.sc" format="2">
  <advance width="516"/>
  <anchor x="236" y="0" name="bottom"/>
  <anchor x="230" y="0" name="bottomC"/>
  <anchor x="290" y="0" name="ogonek"/>
  <anchor x="389" y="560" name="top"/>
  <outline>
    <contour>
      <point x="349" y="560" type="line"/>
      <point x="349" y="210" type="line" smooth="yes"/>
      <point x="349" y="113"/>
      <point x="318" y="61"/>
      <point x="222" y="61" type="curve" smooth="yes"/>
      <point x="135" y="61"/>
      <point x="105" y="108"/>
      <point x="119" y="207" type="curve"/>
      <point x="43" y="192" type="line"/>
      <point x="20" y="71"/>
      <point x="85" y="-8"/>
      <point x="223" y="-8" type="curve" smooth="yes"/>
      <point x="353" y="-8"/>
      <point x="429" y="68"/>
      <point x="429" y="196" type="curve" smooth="yes"/>
      <point x="429" y="560" type="line"/>
    </contour>
  </outline>
</glyph>
<glyph name="k.sc" format="2">
  <advance width="591"/>
  <anchor x="331" y="0" name="bottom"/>
  <anchor x="526" y="0" name="bottomC"/>
  <anchor x="566" y="0" name="ogonek"/>
  <anchor x="317" y="560" name="top"/>
  <outline>
    <contour>
      <point x="463" y="560" type="line"/>
      <point x="134" y="234" type="line"/>
      <point x="134" y="141" type="line"/>
      <point x="293" y="295" type="line"/>
      <point x="303" y="297" type="line"/>
      <point x="561" y="560" type="line"/>
    </contour>
    <contour>
      <point x="94" y="560" type="line"/>
      <point x="94" y="0" type="line"/>
      <point x="174" y="0" type="line"/>
      <point x="174" y="560" type="line"/>
    </contour>
    <contour>
      <point x="253" y="312" type="line"/>
      <point x="468" y="0" type="line"/>
      <point x="566" y="0" type="line"/>
      <point x="317" y="357" type="line"/>
    </contour>
  </outline>
</glyph>
<glyph name="l.sc" format="2">
  <advance width="588"/>
  <anchor x="328" y="0" name="bottom"/>
  <anchor x="328" y="0" name="bottomC"/>
  <anchor x="508" y="0" name="ogonek"/>
  <anchor x="142" y="560" name="top"/>
  <anchor x="284" y="560" name="topright"/>
  <outline>
    <contour>
      <point x="94" y="560" type="line"/>
      <point x="94" y="0" type="line"/>
      <point x="174" y="0" type="line"/>
      <point x="174" y="560" type="line"/>
    </contour>
    <contour>
      <point x="135" y="69" type="line"/>
      <point x="135" y="0" type="line"/>
      <point x="508" y="0" type="line"/>
      <point x="508" y="69" type="line"/>
    </contour>
  </outline>
</glyph>
<glyph name="longs_l.ss02" format="2">
  <advance width="524"/>
  <anchor x="389" y="0" name="bottomC"/>
  <anchor x="389" y="730" name="top"/>
  <anchor x="429" y="0" name="ogonek"/>
  <anchor x="509" y="730" name="topright"/>
  <anchor x="389" y="0" name="bottom"/>
  <outline>
    <contour>
      <point x="169" y="0" type="line"/>
      <point x="169" y="576" type="line" smooth="yes"/>
      <point x="169" y="636"/>
      <point x="195" y="662"/>
      <point x="240" y="662" type="curve" smooth="yes"/>
      <point x="258" y="662"/>
      <point x="272" y="657"/>
      <point x="285" y="647" type="curve"/>
      <point x="301" y="712" type="line"/>
      <point x="287" y="727"/>
      <point x="262" y="735"/>
      <point x="224" y="735" type="curve" smooth="yes"/>
      <point x="125" y="735"/>
      <point x="89" y="673"/>
      <point x="89" y="584" type="curve" smooth="yes"/>
      <point x="89" y="0" type="line"/>
    </contour>
    <component base="l.ss02" xOffset="254"/>
  </outline>
</glyph>
<glyph name="m.sc" format="2">
  <advance width="774"/>
  <anchor x="387" y="0" name="bottom"/>
  <anchor x="413" y="0" name="bottomC"/>
  <anchor x="680" y="0" name="ogonek"/>
  <anchor x="387" y="560" name="top"/>
  <outline>
    <contour>
      <point x="170" y="0" type="line"/>
      <point x="170" y="325" type="line"/>
      <point x="164" y="485" type="line"/>
      <point x="166" y="485" type="line"/>
      <point x="350" y="0" type="line"/>
      <point x="424" y="0" type="line"/>
      <point x="608" y="485" type="line"/>
      <point x="610" y="485" type="line"/>
      <point x="603" y="325" type="line"/>
      <point x="603" y="0" type="line"/>
      <point x="680" y="0" type="line"/>
      <point x="680" y="560" type="line"/>
      <point x="561" y="560" type="line"/>
      <point x="425" y="195" type="line"/>
      <point x="389" y="86" type="line"/>
      <point x="386" y="86" type="line"/>
      <point x="350" y="195" type="line"/>
      <point x="214" y="560" type="line"/>
      <point x="94" y="560" type="line"/>
      <point x="94" y="0" type="line"/>
    </contour>
  </outline>
</glyph>
<glyph name="numbersign.tf" format="2">
  <advance width="604"/>
  <outline>
    <contour>
      <point x="434" y="660" type="line"/>
      <point x="335" y="0" type="line"/>
      <point x="405" y="0" type="line"/>
      <point x="504" y="660" type="line"/>
    </contour>
    <contour>
      <point x="19" y="248" type="line"/>
      <point x="19" y="187" type="line"/>
      <point x="535" y="187" type="line"/>
      <point x="535" y="248" type="line"/>
    </contour>
    <contour>
      <point x="210" y="660" type="line"/>
      <point x="111" y="0" type="line"/>
      <point x="181" y="0" type="line"/>
      <point x="280" y="660" type="line"/>
    </contour>
    <contour>
      <point x="69" y="478" type="line"/>
      <point x="69" y="417" type="line"/>
      <point x="585" y="417" type="line"/>
      <point x="585" y="478" type="line"/>
    </contour>
  </outline>
</glyph>
<glyph name="o.sc" format="2">
  <advance width="672"/>
  <anchor x="336" y="0" name="bottom"/>
  <anchor x="336" y="0" name="bottomC"/>
  <anchor x="405" y="0" name="ogonek"/>
  <anchor x="336" y="560" name="top"/>
  <outline>
    <contour>
      <point x="166" y="568"/>
      <point x="60" y="458"/>
      <point x="60" y="280" type="curve" smooth="yes"/>
      <point x="60" y="102"/>
      <point x="166" y="-8"/>
      <point x="336" y="-8" type="curve" smooth="yes"/>
      <point x="506" y="-8"/>
      <point x="612" y="102"/>
      <point x="612" y="280" type="curve" smooth="yes"/>
      <point x="612" y="458"/>
      <point x="506" y="568"/>
      <point x="336" y="568" type="curve" smooth="yes"/>
    </contour>
    <contour>
      <point x="456" y="499"/>
      <point x="532" y="418"/>
      <point x="532" y="280" type="curve" smooth="yes"/>
      <point x="532" y="142"/>
      <point x="456" y="61"/>
      <point x="336" y="61" type="curve" smooth="yes"/>
      <point x="216" y="61"/>
      <point x="140" y="142"/>
      <point x="140" y="280" type="curve" smooth="yes"/>
      <point x="140" y="418"/>
      <point x="216" y="499"/>
      <point x="336" y="499" type="curve" smooth="yes"/>
    </contour>
  </outline>
</glyph>
<glyph name="ogonek.e" format="2">
  <advance width="584"/>
  <anchor x="379" y="40" name="_ogonek"/>
  <outline>
    <contour>
      <point x="296" y="-2"/>
      <point x="242" y="-46"/>
      <point x="242" y="-113" type="curve" smooth="yes"/>
      <point x="242" y="-173"/>
      <point x="289" y="-215"/>
      <point x="361" y="-215" type="curve" smooth="yes"/>
      <point x="390" y="-215"/>
      <point x="423" y="-209"/>
      <point x="442" y="-197" type="curve"/>
      <point x="426" y="-146" type="line"/>
      <point x="410" y="-156"/>
      <point x="388" y="-158"/>
      <point x="371" y="-158" type="curve" smooth="yes"/>
      <point x="334" y="-158"/>
      <point x="308" y="-137"/>
      <point x="308" y="-101" type="curve" smooth="yes"/>
      <point x="308" y="-63"/>
      <point x="345" y="-26"/>
      <point x="425" y="20" type="curve"/>
      <point x="379" y="40" type="line"/>
    </contour>
  </outline>
</glyph>
<glyph name="one.tosf" format="2">
  <advance width="604"/>
  <outline>
    <contour>
      <point x="564" y="0" type="line"/>
      <point x="564" y="70" type="line"/>
      <point x="106" y="70" type="line"/>
      <point x="106" y="0" type="line"/>
    </contour>
    <contour>
      <point x="385" y="560" type="line"/>
      <point x="315" y="560" type="line"/>
      <point x="309" y="509"/>
      <point x="305" y="427"/>
      <point x="305" y="376" type="curve" smooth="yes"/>
      <point x="305" y="0" type="line"/>
      <point x="385" y="0" type="line"/>
      <point x="385" y="406" type="line"/>
    </contour>
    <contour>
      <point x="219" y="395"/>
      <point x="324" y="461"/>
      <point x="359" y="540" type="curve"/>
      <point x="315" y="560" type="line"/>
      <point x="278" y="509"/>
      <point x="152" y="447"/>
      <point x="105" y="441" type="curve"/>
      <point x="126" y="373" type="line"/>
    </contour>
  </outline>
</glyph>
<glyph name="oslash.sc" format="2">
  <advance width="672"/>
  <anchor x="336" y="0" name="bottom"/>
  <anchor x="336" y="0" name="bottomC"/>
  <anchor x="405" y="0" name="ogonek"/>
  <anchor x="336" y="560" name="top"/>
  <outline>
    <contour>
      <point x="533" y="579" type="line"/>
      <point x="466" y="489" type="line"/>
      <point x="504" y="458" type="line"/>
      <point x="594" y="579" type="line"/>
    </contour>
    <contour>
      <point x="167" y="90" type="line"/>
      <point x="206" y="59" type="line"/>
      <point x="504" y="459" type="line"/>
      <point x="465" y="489" type="line"/>
    </contour>
    <contour>
      <point x="140" y="-29" type="line"/>
      <point x="205" y="59" type="line"/>
      <point x="166" y="91" type="line"/>
      <point x="79" y="-29" type="line"/>
    </contour>
    <component base="o.sc"/>
  </outline>
</glyph>
<glyph name="quotesingle.sc" format="2">
  <advance width="237"/>
  <outline>
    <contour>
      <point x="82" y="592" type="line"/>
      <point x="82" y="345" type="line"/>
      <point x="144" y="345" type="line"/>
      <point x="170" y="592" type="line"/>
    </contour>
  </outline>
</glyph>
<glyph name="r.swsh" format="2">
  <advance width="493"/>
  <anchor x="154" y="0" name="bottom"/>
  <anchor x="133" y="0" name="bottomC"/>
  <anchor x="173" y="0" name="ogonek"/>
  <anchor x="220" y="500" name="top"/>
  <outline>
    <contour>
      <point x="503" y="443" type="line"/>
      <point x="428" y="456"/>
      <point x="413" y="510"/>
      <point x="309" y="510" type="curve" smooth="yes"/>
      <point x="214" y="510"/>
      <point x="146" y="438"/>
      <point x="146" y="295" type="curve"/>
      <point x="173" y="270" type="line"/>
      <point x="173" y="382"/>
      <point x="240" y="435"/>
      <point x="309" y="435" type="curve" smooth="yes"/>
      <point x="378" y="435"/>
      <point x="397" y="397"/>
      <point x="460" y="383" type="curve"/>
    </contour>
    <contour>
      <point x="173" y="0" type="line"/>
      <point x="173" y="372" type="line"/>
      <point x="173" y="383" type="line"/>
      <point x="158" y="500" type="line"/>
      <point x="93" y="500" type="line"/>
      <point x="93" y="0" type="line"/>
    </contour>
  </outline>
</glyph>
<glyph name="s_t" format="2">
  <advance width="860"/>
  <outline>
    <contour>
      <point x="391" y="-10"/>
      <point x="472" y="51"/>
      <point x="472" y="138" type="curve" smooth="yes"/>
      <point x="472" y="220"/>
      <point x="422" y="261"/>
      <point x="282" y="285" type="curve" smooth="yes"/>
      <point x="180" y="303"/>
      <point x="147" y="324"/>
      <point x="147" y="367" type="curve" smooth="yes"/>
      <point x="147" y="404"/>
      <point x="197" y="440"/>
      <point x="264" y="440" type="curve" smooth="yes"/>
      <point x="327" y="440"/>
      <point x="376" y="416"/>
      <point x="398" y="360" type="curve"/>
      <point x="464" y="391" type="line"/>
      <point x="416" y="468"/>
      <point x="407" y="515"/>
      <point x="407" y="563" type="curve" smooth="yes"/>
      <point x="407" y="625"/>
      <point x="435" y="662"/>
      <point x="488" y="662" type="curve" smooth="yes"/>
      <point x="535" y="662"/>
      <point x="572" y="628"/>
      <point x="572" y="542" type="curve" smooth="yes"/>
      <point x="572" y="124" type="line" smooth="yes"/>
      <point x="572" y="27"/>
      <point x="637" y="-10"/>
      <point x="711" y="-10" type="curve" smooth="yes"/>
      <point x="766" y="-10"/>
      <point x="809" y="7"/>
      <point x="840" y="35" type="curve"/>
      <point x="812" y="102" type="line"/>
      <point x="789" y="79"/>
      <point x="763" y="65"/>
      <point x="727" y="65" type="curve" smooth="yes"/>
      <point x="683" y="65"/>
      <point x="652" y="89"/>
      <point x="652" y="138" type="curve" smooth="yes"/>
      <point x="652" y="573" type="line" smooth="yes"/>
      <point x="652" y="684"/>
      <point x="579" y="731"/>
      <point x="494" y="731" type="curve" smooth="yes"/>
      <point x="406" y="731"/>
      <point x="334" y="683"/>
      <point x="334" y="563" type="curve" smooth="yes"/>
      <point x="334" y="521"/>
      <point x="360" y="479"/>
      <point x="384" y="454" type="curve"/>
      <point x="388" y="483" type="line"/>
      <point x="357" y="501"/>
      <point x="315" y="510"/>
      <point x="264" y="510" type="curve" smooth="yes"/>
      <point x="142" y="510"/>
      <point x="67" y="441"/>
      <point x="67" y="360" type="curve" smooth="yes"/>
      <point x="67" y="279"/>
      <point x="119" y="235"/>
      <point x="261" y="211" type="curve" smooth="yes"/>
      <point x="361" y="194"/>
      <point x="392" y="171"/>
      <point x="392" y="134" type="curve" smooth="yes"/>
      <point x="392" y="93"/>
      <point x="353" y="60"/>
      <point x="271" y="60" type="curve" smooth="yes"/>
      <point x="199" y="60"/>
      <point x="137" y="87"/>
      <point x="113" y="148" type="curve"/>
      <point x="48" y="103" type="line"/>
      <point x="86" y="26"/>
      <point x="171" y="-10"/>
      <point x="263" y="-10" type="curve" smooth="yes"/>
    </contour>
    <contour>
      <point x="837" y="431" type="line"/>
      <point x="837" y="500" type="line"/>
      <point x="592" y="500" type="line"/>
      <point x="592" y="431" type="line"/>
    </contour>
  </outline>
</glyph>
<glyph name="six.sc" format="2">
  <advance width="531"/>
  <outline>
    <contour>
      <point x="406" y="-8"/>
      <point x="483" y="62"/>
      <point x="483" y="172" type="curve" smooth="yes"/>
      <point x="483" y="282"/>
      <point x="406" y="352"/>
      <point x="286" y="352" type="curve" smooth="yes"/>
      <point x="222" y="352"/>
      <point x="145" y="315"/>
      <point x="128" y="253" type="curve"/>
      <point x="124" y="253" type="line"/>
      <point x="124" y="261"/>
      <point x="124" y="265"/>
      <point x="124" y="271" type="curve" smooth="yes"/>
      <point x="124" y="399"/>
      <point x="185" y="499"/>
      <point x="281" y="499" type="curve" smooth="yes"/>
      <point x="349" y="499"/>
      <point x="385" y="467"/>
      <point x="402" y="417" type="curve"/>
      <point x="472" y="451" type="line"/>
      <point x="436" y="533"/>
      <point x="378" y="568"/>
      <point x="284" y="568" type="curve" smooth="yes"/>
      <point x="152" y="568"/>
      <point x="50" y="469"/>
      <point x="50" y="280" type="curve" smooth="yes"/>
      <point x="50" y="97"/>
      <point x="130" y="-8"/>
      <point x="286" y="-8" type="curve" smooth="yes"/>
    </contour>
    <contour>
      <point x="203" y="61"/>
      <point x="153" y="105"/>
      <point x="153" y="172" type="curve" smooth="yes"/>
      <point x="153" y="236"/>
      <point x="203" y="283"/>
      <point x="279" y="283" type="curve" smooth="yes"/>
      <point x="357" y="283"/>
      <point x="403" y="242"/>
      <point x="403" y="172" type="curve" smooth="yes"/>
      <point x="403" y="102"/>
      <point x="357" y="61"/>
      <point x="279" y="61" type="curve" smooth="yes"/>
    </contour>
  </outline>
</glyph>
<glyph name="swash_bttmleft" format="2">
  <advance width="439"/>
  <outline>
    <contour>
      <point x="295" y="-110"/>
      <point x="361" y="-26"/>
      <point x="361" y="66" type="curve" smooth="yes"/>
      <point x="361" y="202" type="line"/>
      <point x="285" y="202" type="line"/>
      <point x="285" y="90" type="line" smooth="yes"/>
      <point x="285" y="13"/>
      <point x="242" y="-41"/>
      <point x="169" y="-41" type="curve" smooth="yes"/>
      <point x="98" y="-41"/>
      <point x="67" y="-10"/>
      <point x="55" y="64" type="curve"/>
      <point x="-4" y="21" type="line"/>
      <point x="8" y="-58"/>
      <point x="62" y="-110"/>
      <point x="169" y="-110" type="curve" smooth="yes"/>
    </contour>
  </outline>
</glyph>
<glyph name="t.sc" format="2">
  <advance width="551"/>
  <anchor x="276" y="0" name="bottom"/>
  <anchor x="305" y="0" name="bottomC"/>
  <anchor x="244" y="247" name="center"/>
  <anchor x="316" y="0" name="ogonek"/>
  <anchor x="276" y="560" name="top"/>
  <outline>
    <contour>
      <point x="236" y="529" type="line"/>
      <point x="236" y="0" type="line"/>
      <point x="316" y="0" type="line"/>
      <point x="316" y="529" type="line"/>
    </contour>
    <contour>
      <point x="30" y="560" type="line"/>
      <point x="30" y="491" type="line"/>
      <point x="521" y="491" type="line"/>
      <point x="521" y="560" type="line"/>
    </contour>
  </outline>
</glyph>
<glyph name="thorn.sc" format="2">
  <advance width="569"/>
  <anchor x="134" y="0" name="bottom"/>
  <anchor x="134" y="560" name="top"/>
  <outline>
    <contour>
      <point x="299" y="111" type="line" smooth="yes"/>
      <point x="446" y="111"/>
      <point x="521" y="173"/>
      <point x="521" y="286" type="curve" smooth="yes"/>
      <point x="521" y="400"/>
      <point x="446" y="461"/>
      <point x="299" y="461" type="curve" smooth="yes"/>
      <point x="134" y="461" type="line"/>
      <point x="134" y="392" type="line"/>
      <point x="314" y="392" type="line" smooth="yes"/>
      <point x="396" y="392"/>
      <point x="441" y="358"/>
      <point x="441" y="286" type="curve" smooth="yes"/>
      <point x="441" y="214"/>
      <point x="396" y="180"/>
      <point x="314" y="180" type="curve" smooth="yes"/>
      <point x="134" y="180" type="line"/>
      <point x="134" y="111" type="line"/>
    </contour>
    <contour>
      <point x="174" y="0" type="line"/>
      <point x="174" y="560" type="line"/>
      <point x="94" y="560" type="line"/>
      <point x="94" y="0" type="line"/>
    </contour>
  </outline>
</glyph>
<glyph name="three.osf" format="2">
  <advance width="533"/>
  <outline>
    <contour>
      <point x="150" y="570"/>
      <point x="69" y="515"/>
      <point x="37" y="429" type="curve"/>
      <point x="109" y="394" type="line"/>
      <point x="125" y="459"/>
      <point x="172" y="502"/>
      <point x="252" y="502" type="curve" smooth="yes"/>
      <point x="333" y="502"/>
      <point x="377" y="465"/>
      <point x="377" y="383" type="curve" smooth="yes"/>
      <point x="377" y="309"/>
      <point x="328" y="267"/>
      <point x="237" y="267" type="curve" smooth="yes"/>
      <point x="211" y="267" type="line"/>
      <point x="211" y="199" type="line"/>
      <point x="237" y="199" type="line" smooth="yes"/>
      <point x="340" y="199"/>
      <point x="392" y="168"/>
      <point x="392" y="87" type="curve" smooth="yes"/>
      <point x="392" y="13"/>
      <point x="341" y="-42"/>
      <point x="246" y="-42" type="curve" smooth="yes"/>
      <point x="148" y="-42"/>
      <point x="107" y="10"/>
      <point x="83" y="88" type="curve"/>
      <point x="12" y="48" type="line"/>
      <point x="53" y="-55"/>
      <point x="128" y="-110"/>
      <point x="240" y="-110" type="curve" smooth="yes"/>
      <point x="381" y="-110"/>
      <point x="472" y="-30"/>
      <point x="472" y="82" type="curve" smooth="yes"/>
      <point x="472" y="161"/>
      <point x="433" y="228"/>
      <point x="333" y="233" type="curve"/>
      <point x="333" y="235" type="line"/>
      <point x="414" y="248"/>
      <point x="457" y="301"/>
      <point x="457" y="395" type="curve" smooth="yes"/>
      <point x="457" y="486"/>
      <point x="391" y="570"/>
      <point x="251" y="570" type="curve" smooth="yes"/>
    </contour>
  </outline>
</glyph>
<glyph name="two.osf" format="2">
  <advance width="533"/>
  <outline>
    <contour>
      <point x="131" y="570"/>
      <point x="48" y="489"/>
      <point x="47" y="374" type="curve"/>
      <point x="117" y="339" type="line"/>
      <point x="108" y="437"/>
      <point x="174" y="502"/>
      <point x="261" y="502" type="curve" smooth="yes"/>
      <point x="325" y="502"/>
      <point x="393" y="473"/>
      <point x="393" y="378" type="curve" smooth="yes"/>
      <point x="393" y="241"/>
      <point x="257" y="169"/>
      <point x="51" y="71" type="curve"/>
      <point x="51" y="0" type="line"/>
      <point x="496" y="0" type="line"/>
      <point x="496" y="68" type="line"/>
      <point x="256" y="68" type="line" smooth="yes"/>
      <point x="222" y="68"/>
      <point x="196" y="65"/>
      <point x="169" y="63" type="curve"/>
      <point x="169" y="65" type="line"/>
      <point x="193" y="74"/>
      <point x="208" y="80"/>
      <point x="227" y="90" type="curve" smooth="yes"/>
      <point x="365" y="164"/>
      <point x="473" y="244"/>
      <point x="473" y="375" type="curve" smooth="yes"/>
      <point x="473" y="504"/>
      <point x="389" y="570"/>
      <point x="259" y="570" type="curve" smooth="yes"/>
    </contour>
  </outline>
</glyph>
<glyph name="two.sc" format="2">
  <advance width="515"/>
  <outline>
    <contour>
      <point x="122" y="568"/>
      <point x="52" y="488"/>
      <point x="53" y="384" type="curve"/>
      <point x="122" y="349" type="line"/>
      <point x="113" y="433"/>
      <point x="164" y="499"/>
      <point x="250" y="499" type="curve" smooth="yes"/>
      <point x="334" y="499"/>
      <point x="375" y="452"/>
      <point x="375" y="390" type="curve" smooth="yes"/>
      <point x="375" y="290"/>
      <point x="268" y="199"/>
      <point x="58" y="65" type="curve"/>
      <point x="58" y="0" type="line"/>
      <point x="468" y="0" type="line"/>
      <point x="468" y="69" type="line"/>
      <point x="263" y="69" type="line" smooth="yes"/>
      <point x="237" y="69"/>
      <point x="204" y="67"/>
      <point x="176" y="64" type="curve"/>
      <point x="176" y="65" type="line"/>
      <point x="326" y="162"/>
      <point x="455" y="265"/>
      <point x="455" y="401" type="curve" smooth="yes"/>
      <point x="455" y="493"/>
      <point x="385" y="568"/>
      <point x="253" y="568" type="curve" smooth="yes"/>
    </contour>
  </outline>
</glyph>
<glyph name="uogonek_j" format="2">
  <advance width="885"/>
  <anchor x="692" y="-210" name="bottomC"/>
  <anchor x="752" y="706" name="top"/>
  <anchor x="711" y="-204" name="ogonek"/>
  <anchor x="692" y="-210" name="bottom"/>
  <outline>
    <contour>
      <point x="376" y="-10"/>
      <point x="482" y="73"/>
      <point x="482" y="208" type="curve"/>
      <point x="446" y="236" type="line"/>
      <point x="446" y="125"/>
      <point x="366" y="60"/>
      <point x="281" y="60" type="curve" smooth="yes"/>
      <point x="214" y="60"/>
      <point x="168" y="91"/>
      <point x="168" y="194" type="curve" smooth="yes"/>
      <point x="168" y="500" type="line"/>
      <point x="88" y="500" type="line"/>
      <point x="88" y="173" type="line" smooth="yes"/>
      <point x="88" y="41"/>
      <point x="173" y="-10"/>
      <point x="272" y="-10" type="curve" smooth="yes"/>
    </contour>
    <contour>
      <point x="491" y="-215"/>
      <point x="520" y="-205"/>
      <point x="542" y="-190" type="curve"/>
      <point x="530" y="-139" type="line"/>
      <point x="513" y="-150"/>
      <point x="493" y="-158"/>
      <point x="466" y="-158" type="curve" smooth="yes"/>
      <point x="432" y="-158"/>
      <point x="412" y="-143"/>
      <point x="412" y="-110" type="curve" smooth="yes"/>
      <point x="412" y="-72"/>
      <point x="443" y="-44"/>
      <point x="526" y="0" type="curve"/>
      <point x="474" y="17" type="line"/>
      <point x="389" y="-25"/>
      <point x="350" y="-63"/>
      <point x="350" y="-123" type="curve" smooth="yes"/>
      <point x="350" y="-178"/>
      <point x="384" y="-215"/>
      <point x="456" y="-215" type="curve" smooth="yes"/>
    </contour>
    <contour>
      <point x="526" y="0" type="line"/>
      <point x="526" y="117" type="line"/>
      <point x="526" y="500" type="line"/>
      <point x="446" y="500" type="line"/>
      <point x="446" y="161" type="line"/>
      <point x="446" y="117" type="line"/>
      <point x="461" y="0" type="line"/>
    </contour>
    <component base="j.ogonek" xOffset="572"/>
  </outline>
</glyph>
<glyph name="v.sc" format="2">
  <advance width="588"/>
  <anchor x="294" y="0" name="bottom"/>
  <anchor x="309" y="0" name="bottomC"/>
  <anchor x="341" y="0" name="ogonek"/>
  <anchor x="294" y="560" name="top"/>
  <outline>
    <contour>
      <point x="479" y="560" type="line"/>
      <point x="330" y="173" type="line"/>
      <point x="295" y="68" type="line"/>
      <point x="294" y="68" type="line"/>
      <point x="259" y="174" type="line"/>
      <point x="110" y="560" type="line"/>
      <point x="25" y="560" type="line"/>
      <point x="248" y="0" type="line"/>
      <point x="341" y="0" type="line"/>
      <point x="563" y="560" type="line"/>
    </contour>
  </outline>
</glyph>
<glyph name="whiteCircle.case" format="2">
  <advance width="780"/>
  <outline>
    <contour>
      <point x="584" y="-10"/>
      <point x="730" y="136"/>
      <point x="730" y="330" type="curve" smooth="yes"/>
      <point x="730" y="524"/>
      <point x="584" y="670"/>
      <point x="390" y="670" type="curve" smooth="yes"/>
      <point x="196" y="670"/>
      <point x="50" y="524"/>
      <point x="50" y="330" type="curve" smooth="yes"/>
      <point x="50" y="136"/>
      <point x="196" y="-10"/>
      <point x="390" y="-10" type="curve" smooth="yes"/>
    </contour>
    <contour>
      <point x="240" y="65"/>
      <point x="130" y="177"/>
      <point x="130" y="330" type="curve" smooth="yes"/>
      <point x="130" y="483"/>
      <point x="240" y="595"/>
      <point x="390" y="595" type="curve" smooth="yes"/>
      <point x="540" y="595"/>
      <point x="650" y="483"/>
      <point x="650" y="330" type="curve" smooth="yes"/>
      <point x="650" y="177"/>
      <point x="540" y="65"/>
      <point x="390" y="65" type="curve" smooth="yes"/>
    </contour>
  </outline>
</glyph>
<glyph name="y.sc" format="2">
  <advance width="526"/>
  <anchor x="263" y="0" name="bottom"/>
  <anchor x="303" y="0" name="bottomC"/>
  <anchor x="303" y="0" name="ogonek"/>
  <anchor x="263" y="560" name="top"/>
  <outline>
    <contour>
      <point x="223" y="0" type="line"/>
      <point x="303" y="0" type="line"/>
      <point x="303" y="215" type="line"/>
      <point x="513" y="560" type="line"/>
      <point x="423" y="560" type="line"/>
      <point x="314" y="372" type="line"/>
      <point x="263" y="283" type="line"/>
      <point x="213" y="372" type="line"/>
      <point x="104" y="560" type="line"/>
      <point x="13" y="560" type="line"/>
      <point x="223" y="215" type="line"/>
    </contour>
  </outline>
</glyph>
<glyph name="zero.tosf" format="2">
  <advance width="604"/>
  <outline>
    <contour>
      <point x="148" y="570"/>
      <point x="65" y="469"/>
      <point x="65" y="280" type="curve" smooth="yes"/>
      <point x="65" y="91"/>
      <point x="148" y="-10"/>
      <point x="302" y="-10" type="curve" smooth="yes"/>
      <point x="456" y="-10"/>
      <point x="539" y="91"/>
      <point x="539" y="280" type="curve" smooth="yes"/>
      <point x="539" y="469"/>
      <point x="456" y="570"/>
      <point x="302" y="570" type="curve" smooth="yes"/>
    </contour>
    <contour>
      <point x="404" y="502"/>
      <point x="459" y="426"/>
      <point x="459" y="280" type="curve" smooth="yes"/>
      <point x="459" y="134"/>
      <point x="404" y="58"/>
      <point x="302" y="58" type="curve" smooth="yes"/>
      <point x="200" y="58"/>
      <point x="145" y="134"/>
      <point x="145" y="280" type="curve" smooth="yes"/>
      <point x="145" y="426"/>
      <point x="200" y="502"/>
      <point x="302" y="502" type="curve" smooth="yes"/>
    </contour>
  </outline>
</glyph>
<glyph name="zero.zero" format="2">
  <advance width="622"/>
  <outline>
    <contour>
      <point x="446" y="578" type="line"/>
      <point x="399" y="613" type="line"/>
      <point x="175" y="77" type="line"/>
      <point x="226" y="51" type="line"/>
    </contour>
    <component base="zero"/>
  </outline>
</glyph>
